<?xml version="1.0" encoding="utf-8"?>
<!-- Generator: Adobe Illustrator 26.0.0, SVG Export Plug-In . SVG Version: 6.00 Build 0)  -->
<svg version="1.1" id="Capa_1" xmlns="http://www.w3.org/2000/svg" xmlns:xlink="http://www.w3.org/1999/xlink" x="0px" y="0px"
	 viewBox="0 0 230 210" style="enable-background:new 0 0 230 210;" xml:space="preserve">
<style type="text/css">
	.st0{fill:none;}
	.st1{fill:#43878D;}
	.st2{font-family:'ReadexPro-Medium';}
	.st3{font-size:12px;}
	.st4{fill:none;stroke:#FFFFFF;stroke-width:4;stroke-miterlimit:10;}
	.st5{fill:none;stroke:#FFFFFF;stroke-width:3;stroke-miterlimit:10;}
	.st6{fill:none;stroke:#FFFFFF;stroke-miterlimit:10;}
	.st7{fill:none;stroke:#FFFFFF;stroke-width:2;stroke-linecap:round;stroke-miterlimit:10;stroke-dasharray:11.6969,11.6969;}
</style>
<rect x="-0.5" y="173" class="st0" width="230" height="37"/>
<text transform="matrix(1 0 0 1 32.9322 195.9201)" class="st1 st2 st3">Compresa y copa menstrual</text>
<image style="overflow:visible;" width="249" height="187" xlink:href="fondo tips.png"  transform="matrix(0.9251 0 0 0.9251 0 0)">
</image>
<g>
	<path class="st4" d="M72.6,32.8c2.4,3.9,10.6,11.7,15.1,11.1c4.6-0.6,20.7-7.2,35.7-0.3s-6.3,37.4,0,47.2s35.7,41.5,29.9,57
		s-27.4,23.9-43.8,7.5c-18.4-18.4-27.6-38-36.9-38s-35.1,4.6-36.9-6.9s9.8-24.8,3.5-37.4c-2.3-4.6-31.3-39-10.7-56.1
		c9.6-7.9,21.6-4.5,30.7,2.3c4.7,3.5,8.9,7.8,12.4,12.6C72.1,32.1,72.4,32.4,72.6,32.8z"/>
	<circle class="st4" cx="115.2" cy="54.5" r="5.6"/>
	<circle class="st5" cx="47" cy="106.9" r="5.6"/>
	<circle class="st6" cx="47" cy="106.9" r="2.9"/>
	<g>
		<path class="st7" d="M115.4,151.2L30.5,47c-5.3-6.5-4.3-16.2,2.2-21.5l3.8-3.1c6.5-5.3,16.2-4.3,21.5,2.2l84.9,104.2
			c5.3,6.5,4.3,16.2-2.2,21.5l-3.8,3.1C130.3,158.6,120.7,157.7,115.4,151.2C115.4,151.2,120.7,157.7,115.4,151.2z"/>
	</g>
	<path class="st5" d="M75.7,85.1c1.3-1.6,1.2-4.4,0-6c-7.5-2.3-4.8-10.9,2.5-7.8c3.1,1.3,3.9,5.8,6.9,7.5c2.4,1.3,8.5-0.9,10.1,1.3
		c1.2,1.6-0.8,3.1-0.9,4.5c-0.2,2.7,0.7,2,2.5,3c4,2.1,3.2,4.8,4.4,8.6c0.5,1.5,3,2.7,1.6,4.6c-1.9,2.5-2.9-0.5-4-1.6
		c-3-2.8-7.1-1.1-11-1c-2.8,0-4,0.4-5-2.4c-0.8-2.1-0.3-3.5-2.3-4.8c-1.6-1-2.6-0.4-3.7-2.3C75.6,87.1,76.1,85.5,75.7,85.1z"/>
	
		<ellipse transform="matrix(0.4145 -0.9101 0.9101 0.4145 54.4416 207.3519)" class="st5" cx="188.4" cy="61.4" rx="9.1" ry="25.2"/>
	<path class="st5" d="M165.2,51.5c0,0-7.9,0.9-3.7,9.8c4.2,8.9,23.6,20.4,39.2,20.4s10.7-10,10.7-10"/>
	<path class="st5" d="M156,91.7c0,0,3.2-2.4,7.4-0.8c4.2,1.6,5.9,7.3,9.8,3.1c3.8-4.2,4.4-1.2,8.1-1.1c3.6,0.1-0.2-2.7,4.9-1.2
		c5.1,1.5,4.3,8,7.4,3.8c3.1-4.2,8.4-4.9,11.9-3.8c-4.2,4.3-10.7,10.5-16.1,12.9s-16.6,4.9-17.4,5.5s-8.6,13.4-10.4,13.7
		c-1.8,0.3-4.6-0.3-4.3-2.6c0.3-2.3,3.8-7.8,4.4-10.9c0.6-3.1,1.5-6.1-0.7-8.8C158.6,98.7,156,91.7,156,91.7z"/>
	<path class="st5" d="M160.3,57.6c0,0-7,4.7-6.2,23.2s9.8,18.9,7.6,28.4s-6.6,11.7-2.6,14.5s8.9-11.8,12.7-13.7s11.5-0.9,22.2-8.4
		s16-13.8,16-22.1"/>
	<path class="st5" d="M156,91.7"/>
</g>
</svg>
