<svg width="50" height="50" viewBox="0 0 50 50" fill="none" xmlns="http://www.w3.org/2000/svg">
<path d="M25 6.00027e-06C38.8071 7.20732e-06 50 11.1929 50 25C50 38.8071 38.8071 50 25 50C11.1929 50 9.78512e-07 38.8071 2.18557e-06 25C3.39262e-06 11.1929 11.1929 4.79321e-06 25 6.00027e-06Z" fill="#D3DBDC"/>
<path d="M23.6544 41.2098C23.9451 41.0307 24.2143 40.8193 24.4571 40.5797L29.525 35.5409L36.0382 29.0672L39.9689 25.162L40.0951 25.0363L24.3007 9.3527C22.3226 7.38781 18.8516 7.54716 17.2766 9.94363C16.7221 10.7801 16.4684 11.779 16.5567 12.7774C16.6451 13.7759 17.0702 14.7152 17.7629 15.4422C18.5792 16.2808 19.4138 17.1057 20.2484 17.9252C22.3814 20.0412 24.5235 22.1497 26.6747 24.2505C26.7168 24.2915 27.4801 25.0436 27.4819 25.0418L18.1578 34.2544C16.9913 35.4071 16.3871 37.2099 16.6732 38.8279C16.8508 39.7682 17.3763 40.6079 18.1459 41.1806C18.8972 41.7246 19.805 42.0121 20.7338 42.0001C21.7623 42.0132 22.774 41.7394 23.6544 41.2098Z" fill="#81B214"/>
</svg>
