<?xml version="1.0" encoding="utf-8"?>
<!-- Generator: Adobe Illustrator 26.0.0, SVG Export Plug-In . SVG Version: 6.00 Build 0)  -->
<svg version="1.1" id="Capa_1" xmlns="http://www.w3.org/2000/svg" xmlns:xlink="http://www.w3.org/1999/xlink" x="0px" y="0px"
	 viewBox="0 0 230 210" style="enable-background:new 0 0 230 210;" xml:space="preserve">
<style type="text/css">
	.st0{fill:none;}
	.st1{enable-background:new    ;}
	.st2{fill:#43878D;}
	.st3{fill:none;stroke:#FFFFFF;stroke-width:3;stroke-miterlimit:10;}
	.st4{fill:none;stroke:#FFFFFF;stroke-miterlimit:10;}
</style>
<rect y="173" class="st0" width="230" height="37"/>
<g class="st1">
	<path class="st2" d="M48.7,195.9v-8.4h3.7c0.5,0,1,0.1,1.4,0.4s0.7,0.6,1,1s0.4,0.9,0.4,1.4c0,0.5-0.1,0.9-0.4,1.3
		c-0.2,0.4-0.6,0.7-1,1c-0.4,0.2-0.9,0.4-1.4,0.4h-2.1v3.1H48.7z M50.2,191.5h2.1c0.2,0,0.4-0.1,0.6-0.2c0.2-0.1,0.3-0.3,0.4-0.4
		c0.1-0.2,0.1-0.4,0.1-0.6c0-0.3-0.1-0.5-0.2-0.7s-0.3-0.3-0.5-0.5c-0.2-0.1-0.5-0.2-0.7-0.2h-1.9V191.5z M53.5,195.9l-2.1-3.8
		l1.6-0.3l2.4,4.1L53.5,195.9z"/>
	<path class="st2" d="M58.3,196c-0.4,0-0.8-0.1-1.1-0.2s-0.6-0.4-0.8-0.7s-0.3-0.6-0.3-1c0-0.3,0.1-0.6,0.2-0.9
		c0.1-0.3,0.3-0.5,0.5-0.6s0.5-0.3,0.9-0.4s0.8-0.1,1.2-0.1h1.8l-0.1,1.1h-1.8c-0.2,0-0.4,0-0.6,0.1c-0.2,0-0.3,0.1-0.4,0.2
		c-0.1,0.1-0.2,0.2-0.3,0.3c-0.1,0.1-0.1,0.2-0.1,0.4c0,0.2,0,0.3,0.1,0.4c0.1,0.1,0.2,0.2,0.3,0.3c0.1,0.1,0.3,0.1,0.5,0.1
		c0.3,0,0.5,0,0.8-0.1c0.2-0.1,0.4-0.2,0.6-0.4s0.3-0.3,0.4-0.5l0.3,0.8c-0.2,0.3-0.4,0.5-0.6,0.7c-0.2,0.2-0.5,0.4-0.8,0.5
		C58.9,196,58.6,196,58.3,196z M60.1,195.9v-4c0-0.3-0.1-0.6-0.3-0.8c-0.2-0.2-0.5-0.3-0.9-0.3c-0.3,0-0.6,0.1-0.9,0.2
		s-0.5,0.3-0.8,0.6l-0.9-0.9c0.4-0.4,0.8-0.7,1.2-0.9s0.9-0.3,1.5-0.3c0.5,0,0.9,0.1,1.3,0.2c0.4,0.2,0.6,0.4,0.8,0.7
		c0.2,0.3,0.3,0.7,0.3,1.2v4.3H60.1z"/>
	<path class="st2" d="M65.2,196c-0.6,0-1.1-0.1-1.5-0.3s-0.8-0.5-1.1-0.8l0.9-0.8c0.2,0.3,0.5,0.5,0.8,0.6s0.6,0.2,0.9,0.2
		c0.1,0,0.3,0,0.4,0c0.1,0,0.2-0.1,0.3-0.1s0.1-0.1,0.2-0.2c0-0.1,0.1-0.2,0.1-0.3c0-0.2-0.1-0.3-0.2-0.5c-0.1,0-0.2-0.1-0.4-0.2
		c-0.2-0.1-0.4-0.1-0.7-0.2c-0.4-0.1-0.8-0.2-1.1-0.4c-0.3-0.1-0.5-0.3-0.7-0.5c-0.1-0.2-0.2-0.3-0.3-0.5c-0.1-0.2-0.1-0.4-0.1-0.6
		c0-0.4,0.1-0.7,0.3-1s0.5-0.5,0.8-0.7c0.4-0.2,0.7-0.2,1.2-0.2c0.3,0,0.6,0,0.9,0.1c0.3,0.1,0.6,0.2,0.8,0.3
		c0.3,0.1,0.5,0.3,0.7,0.5l-0.8,0.9c-0.1-0.1-0.3-0.3-0.5-0.4c-0.2-0.1-0.4-0.2-0.5-0.3c-0.2-0.1-0.4-0.1-0.5-0.1
		c-0.2,0-0.3,0-0.4,0c-0.1,0-0.2,0.1-0.3,0.1c-0.1,0.1-0.1,0.1-0.2,0.2c0,0.1-0.1,0.2-0.1,0.3c0,0.1,0,0.2,0.1,0.3
		c0,0.1,0.1,0.2,0.2,0.2s0.2,0.1,0.4,0.2c0.2,0.1,0.4,0.1,0.7,0.2c0.4,0.1,0.7,0.2,1,0.3s0.5,0.3,0.6,0.4c0.2,0.1,0.3,0.3,0.3,0.5
		c0.1,0.2,0.1,0.4,0.1,0.6c0,0.4-0.1,0.7-0.3,1c-0.2,0.3-0.5,0.5-0.9,0.7C66,196,65.6,196,65.2,196z"/>
	<path class="st2" d="M71.1,196c-0.5,0-0.9-0.1-1.2-0.3s-0.6-0.5-0.8-0.9c-0.2-0.4-0.3-0.8-0.3-1.4v-3.9h1.5v3.6
		c0,0.5,0.1,0.9,0.4,1.2c0.2,0.3,0.6,0.4,1,0.4c0.2,0,0.4,0,0.6-0.1c0.2-0.1,0.3-0.2,0.5-0.3s0.2-0.3,0.3-0.5
		c0.1-0.2,0.1-0.4,0.1-0.6v-3.8h1.5v6.3h-1.4l0-1.3l0.3-0.1c-0.1,0.3-0.3,0.6-0.5,0.8s-0.5,0.4-0.8,0.6S71.4,196,71.1,196z"/>
	<path class="st2" d="M76.3,195.9v-6.3h1.4l0,2l-0.2-0.5c0.1-0.3,0.2-0.6,0.5-0.9c0.2-0.3,0.5-0.5,0.8-0.6c0.3-0.1,0.6-0.2,0.9-0.2
		c0.1,0,0.3,0,0.4,0c0.1,0,0.2,0.1,0.3,0.1l-0.4,1.6c-0.1,0-0.2-0.1-0.3-0.1s-0.2,0-0.4,0c-0.2,0-0.4,0-0.6,0.1
		c-0.2,0.1-0.3,0.2-0.5,0.3c-0.1,0.1-0.2,0.3-0.3,0.5c-0.1,0.2-0.1,0.4-0.1,0.6v3.4H76.3z"/>
	<path class="st2" d="M82.9,196c-0.4,0-0.8-0.1-1.1-0.2s-0.6-0.4-0.8-0.7s-0.3-0.6-0.3-1c0-0.3,0.1-0.6,0.2-0.9
		c0.1-0.3,0.3-0.5,0.5-0.6s0.5-0.3,0.9-0.4s0.8-0.1,1.2-0.1h1.8l-0.1,1.1h-1.8c-0.2,0-0.4,0-0.6,0.1c-0.2,0-0.3,0.1-0.4,0.2
		c-0.1,0.1-0.2,0.2-0.3,0.3c-0.1,0.1-0.1,0.2-0.1,0.4c0,0.2,0,0.3,0.1,0.4c0.1,0.1,0.2,0.2,0.3,0.3c0.1,0.1,0.3,0.1,0.5,0.1
		c0.3,0,0.5,0,0.8-0.1c0.2-0.1,0.4-0.2,0.6-0.4s0.3-0.3,0.4-0.5l0.3,0.8c-0.2,0.3-0.4,0.5-0.6,0.7c-0.2,0.2-0.5,0.4-0.8,0.5
		C83.5,196,83.2,196,82.9,196z M84.7,195.9v-4c0-0.3-0.1-0.6-0.3-0.8c-0.2-0.2-0.5-0.3-0.9-0.3c-0.3,0-0.6,0.1-0.9,0.2
		s-0.5,0.3-0.8,0.6l-0.9-0.9c0.4-0.4,0.8-0.7,1.2-0.9s0.9-0.3,1.5-0.3c0.5,0,0.9,0.1,1.3,0.2c0.4,0.2,0.6,0.4,0.8,0.7
		c0.2,0.3,0.3,0.7,0.3,1.2v4.3H84.7z"/>
	<path class="st2" d="M90.2,196c-0.6,0-1.1-0.1-1.5-0.4c-0.4-0.3-0.8-0.7-1.1-1.2c-0.3-0.5-0.4-1.1-0.4-1.7c0-0.6,0.1-1.2,0.4-1.7
		c0.3-0.5,0.6-0.9,1.1-1.2c0.4-0.3,0.9-0.4,1.5-0.4c0.3,0,0.6,0,0.9,0.1c0.3,0.1,0.5,0.2,0.8,0.4s0.4,0.3,0.5,0.5s0.2,0.4,0.2,0.6
		l-0.4,0V187h1.5v8.9h-1.4l0-1.5l0.3,0c0,0.2-0.1,0.4-0.2,0.6c-0.1,0.2-0.3,0.4-0.5,0.5c-0.2,0.2-0.5,0.3-0.7,0.4
		C90.7,196,90.5,196,90.2,196z M90.4,194.8c0.3,0,0.6-0.1,0.9-0.3c0.3-0.2,0.5-0.4,0.6-0.7c0.1-0.3,0.2-0.7,0.2-1.1
		s-0.1-0.8-0.2-1.1c-0.1-0.3-0.4-0.5-0.6-0.7c-0.3-0.2-0.6-0.3-0.9-0.3c-0.4,0-0.7,0.1-0.9,0.3c-0.3,0.2-0.5,0.4-0.6,0.7
		c-0.2,0.3-0.2,0.7-0.2,1.1s0.1,0.8,0.2,1.1c0.2,0.3,0.4,0.5,0.6,0.7C89.8,194.7,90.1,194.8,90.4,194.8z"/>
	<path class="st2" d="M98.2,196c-0.6,0-1.2-0.1-1.7-0.4s-0.9-0.7-1.2-1.2c-0.3-0.5-0.4-1.1-0.4-1.7s0.1-1.2,0.4-1.7
		c0.3-0.5,0.7-0.9,1.2-1.2c0.5-0.3,1.1-0.4,1.7-0.4c0.6,0,1.2,0.1,1.7,0.4c0.5,0.3,0.9,0.7,1.2,1.2c0.3,0.5,0.4,1.1,0.4,1.7
		s-0.1,1.2-0.4,1.7c-0.3,0.5-0.7,0.9-1.2,1.2S98.8,196,98.2,196z M98.2,194.7c0.3,0,0.7-0.1,0.9-0.3c0.3-0.2,0.5-0.4,0.6-0.7
		c0.2-0.3,0.2-0.6,0.2-1c0-0.4-0.1-0.7-0.2-1c-0.2-0.3-0.4-0.5-0.6-0.7c-0.3-0.2-0.6-0.3-0.9-0.3c-0.3,0-0.7,0.1-0.9,0.3
		s-0.5,0.4-0.6,0.7c-0.2,0.3-0.2,0.6-0.2,1s0.1,0.7,0.2,1c0.2,0.3,0.4,0.5,0.6,0.7C97.5,194.6,97.8,194.7,98.2,194.7z"/>
	<path class="st2" d="M102.8,195.9v-6.3h1.4l0,2l-0.2-0.5c0.1-0.3,0.2-0.6,0.5-0.9c0.2-0.3,0.5-0.5,0.8-0.6c0.3-0.1,0.6-0.2,0.9-0.2
		c0.1,0,0.3,0,0.4,0c0.1,0,0.2,0.1,0.3,0.1l-0.4,1.6c-0.1,0-0.2-0.1-0.3-0.1s-0.2,0-0.4,0c-0.2,0-0.4,0-0.6,0.1
		c-0.2,0.1-0.3,0.2-0.5,0.3c-0.1,0.1-0.2,0.3-0.3,0.5c-0.1,0.2-0.1,0.4-0.1,0.6v3.4H102.8z"/>
	<path class="st2" d="M109.4,196c-0.4,0-0.8-0.1-1.1-0.2s-0.6-0.4-0.8-0.7s-0.3-0.6-0.3-1c0-0.3,0.1-0.6,0.2-0.9
		c0.1-0.3,0.3-0.5,0.5-0.6s0.5-0.3,0.9-0.4s0.8-0.1,1.2-0.1h1.8l-0.1,1.1H110c-0.2,0-0.4,0-0.6,0.1c-0.2,0-0.3,0.1-0.4,0.2
		c-0.1,0.1-0.2,0.2-0.3,0.3c-0.1,0.1-0.1,0.2-0.1,0.4c0,0.2,0,0.3,0.1,0.4c0.1,0.1,0.2,0.2,0.3,0.3c0.1,0.1,0.3,0.1,0.5,0.1
		c0.3,0,0.5,0,0.8-0.1c0.2-0.1,0.4-0.2,0.6-0.4s0.3-0.3,0.4-0.5l0.3,0.8c-0.2,0.3-0.4,0.5-0.6,0.7c-0.2,0.2-0.5,0.4-0.8,0.5
		C110,196,109.7,196,109.4,196z M111.2,195.9v-4c0-0.3-0.1-0.6-0.3-0.8c-0.2-0.2-0.5-0.3-0.9-0.3c-0.3,0-0.6,0.1-0.9,0.2
		s-0.5,0.3-0.8,0.6l-0.9-0.9c0.4-0.4,0.8-0.7,1.2-0.9s0.9-0.3,1.5-0.3c0.5,0,0.9,0.1,1.3,0.2c0.4,0.2,0.6,0.4,0.8,0.7
		c0.2,0.3,0.3,0.7,0.3,1.2v4.3H111.2z"/>
	<path class="st2" d="M117.6,195.9v-6.3h1.4l0,2l-0.2-0.5c0.1-0.3,0.2-0.6,0.5-0.9s0.5-0.5,0.8-0.6c0.3-0.1,0.6-0.2,0.9-0.2
		c0.1,0,0.3,0,0.4,0c0.1,0,0.2,0.1,0.3,0.1l-0.4,1.6c-0.1,0-0.2-0.1-0.3-0.1s-0.2,0-0.4,0c-0.2,0-0.4,0-0.6,0.1
		c-0.2,0.1-0.3,0.2-0.5,0.3c-0.1,0.1-0.2,0.3-0.3,0.5c-0.1,0.2-0.1,0.4-0.1,0.6v3.4H117.6z"/>
	<path class="st2" d="M125.4,196c-0.7,0-1.2-0.1-1.8-0.4c-0.5-0.3-0.9-0.7-1.2-1.1c-0.3-0.5-0.4-1-0.4-1.7c0-0.5,0.1-0.9,0.2-1.4
		s0.4-0.8,0.7-1.1c0.3-0.3,0.6-0.5,1-0.7c0.4-0.2,0.8-0.2,1.3-0.2c0.4,0,0.8,0.1,1.2,0.2c0.4,0.2,0.7,0.4,0.9,0.7
		c0.3,0.3,0.5,0.6,0.6,1s0.2,0.8,0.2,1.2l0,0.5H123l-0.3-1h4.2l-0.2,0.2V192c0-0.2-0.1-0.5-0.2-0.6c-0.1-0.2-0.3-0.3-0.5-0.4
		s-0.4-0.2-0.7-0.2c-0.4,0-0.7,0.1-1,0.2c-0.3,0.1-0.5,0.4-0.6,0.7c-0.1,0.3-0.2,0.6-0.2,1.1c0,0.4,0.1,0.8,0.3,1.1
		c0.2,0.3,0.4,0.5,0.7,0.7c0.3,0.2,0.7,0.3,1.1,0.3c0.3,0,0.6,0,0.8-0.1s0.5-0.3,0.8-0.5l0.7,1c-0.2,0.2-0.5,0.4-0.7,0.5
		c-0.3,0.1-0.6,0.2-0.9,0.3S125.7,196,125.4,196z"/>
	<path class="st2" d="M131.6,196c-0.5,0-0.9-0.1-1.2-0.3s-0.6-0.5-0.8-0.9c-0.2-0.4-0.3-0.8-0.3-1.4v-3.9h1.5v3.6
		c0,0.5,0.1,0.9,0.4,1.2c0.2,0.3,0.6,0.4,1,0.4c0.2,0,0.4,0,0.6-0.1c0.2-0.1,0.3-0.2,0.5-0.3s0.2-0.3,0.3-0.5
		c0.1-0.2,0.1-0.4,0.1-0.6v-3.8h1.5v6.3h-1.4l0-1.3l0.3-0.1c-0.1,0.3-0.3,0.6-0.5,0.8c-0.2,0.2-0.5,0.4-0.8,0.6
		C132.3,196,132,196,131.6,196z"/>
	<path class="st2" d="M136.3,191v-1.4h4.1v1.4H136.3z M137.6,195.9V188h1.5v7.9H137.6z"/>
	<path class="st2" d="M142.4,188.3c-0.3,0-0.5-0.1-0.7-0.2c-0.2-0.1-0.2-0.4-0.2-0.6c0-0.3,0.1-0.5,0.3-0.6c0.2-0.2,0.4-0.2,0.7-0.2
		c0.3,0,0.5,0.1,0.7,0.2c0.2,0.1,0.2,0.4,0.2,0.6c0,0.2-0.1,0.5-0.3,0.6S142.7,188.3,142.4,188.3z M141.7,195.9v-6.3h1.5v6.3H141.7z
		"/>
	<path class="st2" d="M145,195.9V187h1.5v8.9H145z"/>
	<path class="st2" d="M149.2,188.3c-0.3,0-0.5-0.1-0.7-0.2c-0.2-0.1-0.2-0.4-0.2-0.6c0-0.3,0.1-0.5,0.3-0.6c0.2-0.2,0.4-0.2,0.7-0.2
		c0.3,0,0.5,0.1,0.7,0.2c0.2,0.1,0.2,0.4,0.2,0.6c0,0.2-0.1,0.5-0.3,0.6S149.4,188.3,149.2,188.3z M148.4,195.9v-6.3h1.5v6.3H148.4z
		"/>
	<path class="st2" d="M151.5,195.9v-1.1l3.3-4.3v0.3h-3.3v-1.2h4.8v1.1l-3.2,4.2l0-0.2h3.3v1.2H151.5z"/>
	<path class="st2" d="M159.5,196c-0.4,0-0.8-0.1-1.1-0.2c-0.3-0.2-0.6-0.4-0.8-0.7c-0.2-0.3-0.3-0.6-0.3-1c0-0.3,0.1-0.6,0.2-0.9
		s0.3-0.5,0.5-0.6c0.2-0.2,0.5-0.3,0.9-0.4c0.4-0.1,0.8-0.1,1.2-0.1h1.8l-0.1,1.1h-1.8c-0.2,0-0.4,0-0.6,0.1c-0.2,0-0.3,0.1-0.4,0.2
		c-0.1,0.1-0.2,0.2-0.3,0.3c-0.1,0.1-0.1,0.2-0.1,0.4c0,0.2,0,0.3,0.1,0.4s0.2,0.2,0.3,0.3c0.1,0.1,0.3,0.1,0.5,0.1
		c0.3,0,0.5,0,0.8-0.1c0.2-0.1,0.4-0.2,0.6-0.4c0.2-0.2,0.3-0.3,0.4-0.5l0.3,0.8c-0.2,0.3-0.4,0.5-0.6,0.7s-0.5,0.4-0.8,0.5
		C160.1,196,159.8,196,159.5,196z M161.3,195.9v-4c0-0.3-0.1-0.6-0.3-0.8c-0.2-0.2-0.5-0.3-0.9-0.3c-0.3,0-0.6,0.1-0.9,0.2
		c-0.3,0.1-0.5,0.3-0.8,0.6l-0.9-0.9c0.4-0.4,0.8-0.7,1.2-0.9s0.9-0.3,1.5-0.3c0.5,0,0.9,0.1,1.3,0.2c0.4,0.2,0.6,0.4,0.8,0.7
		c0.2,0.3,0.3,0.7,0.3,1.2v4.3H161.3z"/>
	<path class="st2" d="M167.7,196c-0.3,0-0.6,0-0.8-0.1s-0.5-0.2-0.7-0.3c-0.2-0.1-0.4-0.3-0.5-0.5c-0.1-0.2-0.2-0.4-0.3-0.5l0.3-0.2
		l0,1.5h-1.4V187h1.5v4l-0.3-0.1c0-0.2,0.1-0.4,0.3-0.5c0.1-0.2,0.3-0.3,0.5-0.5c0.2-0.1,0.4-0.3,0.7-0.3s0.5-0.1,0.8-0.1
		c0.6,0,1.1,0.1,1.5,0.4c0.4,0.3,0.8,0.7,1,1.2s0.4,1.1,0.4,1.7c0,0.6-0.1,1.2-0.4,1.7s-0.6,0.9-1,1.2
		C168.8,195.9,168.3,196,167.7,196z M167.4,194.7c0.3,0,0.6-0.1,0.9-0.3s0.5-0.4,0.6-0.7c0.2-0.3,0.2-0.6,0.2-1c0-0.4-0.1-0.7-0.2-1
		s-0.4-0.5-0.6-0.7c-0.3-0.2-0.6-0.3-0.9-0.3c-0.4,0-0.7,0.1-0.9,0.3s-0.5,0.4-0.6,0.7s-0.2,0.6-0.2,1c0,0.4,0.1,0.7,0.2,1
		c0.2,0.3,0.4,0.5,0.6,0.7S167.1,194.7,167.4,194.7z"/>
	<path class="st2" d="M171.9,195.9V187h1.5v8.9H171.9z"/>
	<path class="st2" d="M178,196c-0.7,0-1.2-0.1-1.8-0.4c-0.5-0.3-0.9-0.7-1.2-1.1c-0.3-0.5-0.4-1-0.4-1.7c0-0.5,0.1-0.9,0.2-1.4
		c0.2-0.4,0.4-0.8,0.7-1.1c0.3-0.3,0.6-0.5,1-0.7c0.4-0.2,0.8-0.2,1.3-0.2c0.4,0,0.8,0.1,1.2,0.2c0.4,0.2,0.7,0.4,0.9,0.7
		c0.3,0.3,0.5,0.6,0.6,1c0.1,0.4,0.2,0.8,0.2,1.2l0,0.5h-5.1l-0.3-1h4.2l-0.2,0.2V192c0-0.2-0.1-0.5-0.2-0.6
		c-0.1-0.2-0.3-0.3-0.5-0.4c-0.2-0.1-0.4-0.2-0.7-0.2c-0.4,0-0.7,0.1-1,0.2c-0.3,0.1-0.5,0.4-0.6,0.7s-0.2,0.6-0.2,1.1
		c0,0.4,0.1,0.8,0.3,1.1c0.2,0.3,0.4,0.5,0.7,0.7c0.3,0.2,0.7,0.3,1.1,0.3c0.3,0,0.6,0,0.8-0.1s0.5-0.3,0.8-0.5l0.7,1
		c-0.2,0.2-0.5,0.4-0.7,0.5c-0.3,0.1-0.6,0.2-0.9,0.3C178.6,196,178.3,196,178,196z"/>
</g>
<image style="overflow:visible;enable-background:new    ;" width="249" height="187" xlink:href="fondo tips.png"  transform="matrix(0.9251 0 0 0.9251 0 0)">
</image>
<g>
	<path class="st3" d="M89.5,130.3c0,0-5,26.9-20,21.4s-3.5-26.2,6.3-28.8"/>
	<path class="st3" d="M87.8,129.8L77.1,124c-2-1.1-2.7-3.6-1.6-5.5l0,0c1.1-2,3.6-2.7,5.5-1.6l10.7,5.8c2,1.1,2.7,3.6,1.6,5.5l0,0
		C92.3,130.2,89.8,130.9,87.8,129.8z"/>
	<path class="st3" d="M79.6,116.4c0,0,17.1-43.4,30.8-48.7"/>
	<path class="st3" d="M93.4,124.5c0,0,18.7-21.2,28.4-49.7"/>
	<path class="st3" d="M122.2,47c-2.4,2.4-5.4,6.5-7.3,9.2c-2.2,3-6.2,8.5-4.3,12.4c1.3,2.7,5.3,4.8,8,5.9c1.8,0.8,3.9,1.2,5.8,0.5
		c1.6-0.6,2.7-2.1,3.4-3.6c2.5-4.8,4.8-9.8,6.8-14.9"/>
	<polygon class="st3" points="96.3,27.8 155.6,72 156.6,67.2 101.1,25.4 	"/>
	<polyline class="st3" points="106.1,21.2 99.6,24.5 157.6,68.3 159.7,60 	"/>
	<polyline class="st3" points="169.6,61 175.4,64.2 177.1,57.6 	"/>
	<path class="st3" d="M129.9,20.9c0,0-30.7-4.7-23.5,1.8c7.2,6.6,46,36.6,52.4,37.8c6.5,1.2,18-0.2,19-3.5S129.9,20.9,129.9,20.9z"
		/>
	<path class="st4" d="M106.4,70.1c0,0,1,9,13.8,9.2"/>
	<path class="st4" d="M104.1,73.9c0,0,1,9,13.8,9.2"/>
	<path class="st4" d="M100.7,76.3c0,0,1.3,10.9,16.6,11.1"/>
	<path class="st4" d="M97.8,79.5c0,0,1.4,11.8,18.1,12.1"/>
	<path class="st4" d="M71,125.4c0,0,1.8,9.2,17.2,10"/>
	<path class="st4" d="M68.2,129.1c0,0,2.1,9.3,18.6,10.4"/>
	<path class="st4" d="M65.7,131.6c0,0,1.9,11.1,19.8,12"/>
	<path class="st4" d="M63,135c0,0,1.7,11.9,19.5,12.4"/>
	<path class="st3" d="M76,121.5"/>
</g>
</svg>
