<?xml version="1.0" encoding="utf-8"?>
<!-- Generator: Adobe Illustrator 26.0.0, SVG Export Plug-In . SVG Version: 6.00 Build 0)  -->
<svg version="1.1" id="Capa_1" xmlns="http://www.w3.org/2000/svg" xmlns:xlink="http://www.w3.org/1999/xlink" x="0px" y="0px"
	 viewBox="0 0 230 210" style="enable-background:new 0 0 230 210;" xml:space="preserve">
<style type="text/css">
	.st0{fill:none;}
	.st1{fill:#43878D;}
	.st2{font-family:'ReadexPro-Medium';}
	.st3{font-size:12px;}
	.st4{fill:none;stroke:#FFFFFF;stroke-width:3;stroke-miterlimit:10;}
	.st5{fill:none;stroke:#FFFFFF;stroke-miterlimit:10;}
</style>
<rect y="173" class="st0" width="230" height="37"/>
<text transform="matrix(1 0 0 1 47.5249 195.9201)" class="st1 st2 st3">Rasuradora reutilizable</text>
<image style="overflow:visible;" width="249" height="187" xlink:href="fondo tips.png"  transform="matrix(0.9251 0 0 0.9251 0 0)">
</image>
<g>
	<path class="st4" d="M89.5,130.3c0,0-5,26.9-20,21.4c-15-5.5-3.5-26.2,6.3-28.8"/>
	<path class="st4" d="M87.8,129.8L77.1,124c-2-1.1-2.7-3.6-1.6-5.5v0c1.1-2,3.6-2.7,5.5-1.6l10.7,5.8c2,1.1,2.7,3.6,1.6,5.5l0,0
		C92.3,130.2,89.8,130.9,87.8,129.8z"/>
	<path class="st4" d="M79.6,116.4c0,0,17.1-43.4,30.8-48.7"/>
	<path class="st4" d="M93.4,124.5c0,0,18.7-21.2,28.4-49.7"/>
	<path class="st4" d="M122.2,47c-2.4,2.4-5.4,6.5-7.3,9.2c-2.2,3-6.2,8.5-4.3,12.4c1.3,2.7,5.3,4.8,8,5.9c1.8,0.8,3.9,1.2,5.8,0.5
		c1.6-0.6,2.7-2.1,3.4-3.6c2.5-4.8,4.8-9.8,6.8-14.9"/>
	<polygon class="st4" points="96.3,27.8 155.6,72 156.6,67.2 101.1,25.4 	"/>
	<polyline class="st4" points="106.1,21.2 99.6,24.5 157.6,68.3 159.7,60 	"/>
	<polyline class="st4" points="169.6,61 175.4,64.2 177.1,57.6 	"/>
	<path class="st4" d="M129.9,20.9c0,0-30.7-4.7-23.5,1.8c7.2,6.6,46,36.6,52.4,37.8c6.5,1.2,18-0.2,19-3.5S129.9,20.9,129.9,20.9z"
		/>
	<path class="st5" d="M106.4,70.1c0,0,1,9,13.8,9.2"/>
	<path class="st5" d="M104.1,73.9c0,0,1,9,13.8,9.2"/>
	<path class="st5" d="M100.7,76.3c0,0,1.3,10.9,16.6,11.1"/>
	<path class="st5" d="M97.8,79.5c0,0,1.4,11.8,18.1,12.1"/>
	<path class="st5" d="M71,125.4c0,0,1.8,9.2,17.2,10"/>
	<path class="st5" d="M68.2,129.1c0,0,2.1,9.3,18.6,10.4"/>
	<path class="st5" d="M65.7,131.6c0,0,1.9,11.1,19.8,12"/>
	<path class="st5" d="M63,135c0,0,1.7,11.9,19.5,12.4"/>
	<path class="st4" d="M76,121.5"/>
</g>
</svg>
