<?xml version="1.0" encoding="utf-8"?>
<!-- Generator: Adobe Illustrator 26.0.0, SVG Export Plug-In . SVG Version: 6.00 Build 0)  -->
<svg version="1.1" id="Capa_1" xmlns="http://www.w3.org/2000/svg" xmlns:xlink="http://www.w3.org/1999/xlink" x="0px" y="0px"
	 viewBox="0 0 230 210" style="enable-background:new 0 0 230 210;" xml:space="preserve">
<style type="text/css">
	.st0{fill:none;}
	.st1{fill:#43878D;}
	.st2{font-family:'ReadexPro-Medium';}
	.st3{font-size:12px;}
	.st4{fill:none;stroke:#FFFFFF;stroke-width:3;stroke-miterlimit:10;}
	.st5{fill:none;stroke:#FFFFFF;stroke-miterlimit:10;}
	.st6{fill:none;stroke:#FFFFFF;stroke-width:2;stroke-linecap:round;stroke-linejoin:round;stroke-miterlimit:10;}
</style>
<rect y="172.4" class="st0" width="230" height="37"/>
<text transform="matrix(1 0 0 1 47.5249 195.2924)" class="st1 st2 st3">Jabon y shampo solido</text>
<image style="overflow:visible;" width="249" height="187" xlink:href="fondo tips.png"  transform="matrix(0.9237 0 0 0.9218 0 0)">
</image>
<g>
	<line class="st4" x1="106.9" y1="55.1" x2="106.9" y2="72.8"/>
	<line class="st4" x1="24.4" y1="55.1" x2="24.4" y2="88.1"/>
	<circle class="st5" cx="48.2" cy="61.7" r="1.3"/>
	<circle class="st5" cx="62.5" cy="50.3" r="2.4"/>
	<circle class="st5" cx="74.1" cy="60.9" r="2.1"/>
	<circle class="st5" cx="92.3" cy="53.9" r="1.2"/>
	<path class="st6" d="M101.1,89.8c0,0-9.4-9.1,0.7-6.6c0,0-2.1-10.4,4.9-10.4c7.7,1.2-0.8,17.6,3.5,12.5c4.3-5.1,8.2-2.8,8.1,1.2
		c-0.2,4-3.8,5.7-3.8,5.7s7.3-2.3,6.3,7.1c-1,9.4-10.9-1.3-10.9-1.3s-7.1,5.4-13.5-0.8C89.8,91,96.1,86.2,101.1,89.8z"/>
	<g>
		<path class="st6" d="M50.7,100.2c4.4,6.3-8.3,11.2-10.9,4.9c-6.7,11.9-27,2.4-31.9-3.7s3.1-6.8,3.1-6.8s0,0,4.5-5.5
			s11.4-0.4,10.1,2.6c8.1-4.5,8.2,6.3,8.2,6.3l-0.5-3.4c2.4-3.5,9.6-4.2,12.5,1.8c0.2-7.8,10-8.6,11.4-0.7
			c0.2-4.6,10.1-6.8,10.8,2.2c0.5-7.3,12.4-7,11.6,2.4c11-8,11.5,6.7,5.2,4.3c-0.3,9.1-9.2,8-11.8,1.3c0.2,2.5-5.6,9-11.4-0.7
			c-6.3,7.9-11.9,1.5-11.9,1.5s2-1.7,2-3.4C51.6,101.8,50.7,100.2,50.7,100.2z"/>
	</g>
	<path class="st4" d="M96,97.2c-2.2,0.9-4.6,1.7-8,2.5"/>
	<circle class="st5" cx="114.7" cy="69.4" r="2.4"/>
	<circle class="st5" cx="117.6" cy="74.9" r="1.3"/>
	<circle class="st5" cx="112.7" cy="75.3" r="0.9"/>
	<circle class="st5" cx="78.6" cy="87" r="2.3"/>
	<circle class="st5" cx="82.3" cy="94.1" r="1.4"/>
	<ellipse class="st4" cx="65.7" cy="55.2" rx="41.2" ry="13.4"/>
	<path class="st5" d="M196.8,65.7c1.7,1.3-4.2,1.4-6,2.9c-3.2,2.6-1,5.6-2.1,8.8c-0.6,1.7-3.4,3.1-3.6,4.9c-0.1,1.7,3.2,4.7-0.6,4.8
		c-2.8,0.1-1.9-3.9-1.2-5.6c1.1-2.5,2.7-5,1.1-7.8c-1.5-2.6-3.6-2.6-6.2-3c-3.2-0.5-3.2-2.7-4.8-5c-2.4-3.5-8.8-5.3-13-5.3
		C160.3,60.4,183.6,55.3,196.8,65.7z"/>
	<path class="st4" d="M210.9,82.1c-6.9-13.8-21.2-23.3-37.7-23.3c-18.1,0-33.5,11.4-39.5,27.4"/>
	<line class="st4" x1="146.1" y1="101" x2="176.9" y2="101"/>
	<g>
		<path class="st6" d="M208.6,105.2c5.4,2.4-1.1,10.6-5.3,7.5c0.2,6.5-13.5,3.3-15.7,0.5c-2,4.8-8.1,3.1-10.2,2.3
			c-5.6-2.1,0.8-10.7,0.8-10.7s-2-1.1-1.2-6.5s7.3-4.7,7.6-2.3c3.6-6.1,7.8,0.9,7.8,0.9l-1.7-2c0.2-3.2,4.6-6.5,8.9-3.7
			c-2.9-5.1,6.7-10.2,10.6-4.5c-2.5-5,5.4-9.4,8.5-3c4.1-9.5,12.3,5.8,7.3,6.8c3.4,6.1-1,16.1-5.3,12.8c0.3,14.3-10.5,6.4-10.5,6.4
			s0.7-1.9,0-3C209.8,105.9,208.6,105.2,208.6,105.2z"/>
	</g>
	<path class="st6" d="M130.4,99c0,0-13.4-7.9,0.8-8.2c0,0-1.3-4.6,4.3-4.6c6.2,1,8.9,4.1,8.8,7.5c-0.1,3.5-3,5-3,5s5.8-2,5,6.2
		c-0.8,8.2-8.7-1.2-8.7-1.2s-4.3,7.9-9.5,2.5C123.1,100.7,126.7,98.4,130.4,99z"/>
	<circle class="st5" cx="160.8" cy="66.4" r="2.4"/>
	<circle class="st5" cx="163.8" cy="71.9" r="1.3"/>
	<circle class="st5" cx="158.8" cy="72.3" r="0.9"/>
	<circle class="st5" cx="212.8" cy="72.3" r="2.4"/>
	<circle class="st5" cx="218.2" cy="71.9" r="1.3"/>
	<circle class="st5" cx="209" cy="67" r="0.9"/>
	<circle class="st5" cx="130.3" cy="82.3" r="2.4"/>
	<circle class="st5" cx="141.6" cy="84.7" r="1.3"/>
</g>
</svg>
