<?xml version="1.0" encoding="utf-8"?>
<!-- Generator: Adobe Illustrator 26.0.0, SVG Export Plug-In . SVG Version: 6.00 Build 0)  -->
<svg version="1.1" id="Capa_1" xmlns="http://www.w3.org/2000/svg" xmlns:xlink="http://www.w3.org/1999/xlink" x="0px" y="0px"
	 viewBox="0 0 230 210" style="enable-background:new 0 0 230 210;" xml:space="preserve">
<style type="text/css">
	.st0{fill:none;}
	.st1{fill:#43878D;}
	.st2{font-family:'ReadexPro-Medium';}
	.st3{font-size:12px;}
	.st4{fill:none;stroke:#FFFFFF;stroke-width:3;stroke-miterlimit:10;}
	.st5{fill:none;stroke:#FFFFFF;stroke-miterlimit:10;}
</style>
<rect y="173.1" class="st0" width="230" height="37"/>
<text transform="matrix(1 0 0 1 37.8826 195.2188)" class="st1 st2 st3">Discos de tela reutilizables</text>
<image style="overflow:visible;" width="249" height="187" xlink:href="fondo tips.png"  transform="matrix(0.9254 0 0 0.9254 0 0)">
</image>
<g>
	<circle class="st4" cx="111.3" cy="95.4" r="60.4"/>
	<circle class="st5" cx="111.3" cy="95.4" r="53.3"/>
	<path class="st5" d="M73.5,133.6c-1.5,1.5-3.1,3.1-4.6,4.6"/>
	<path class="st5" d="M153.7,53.4c-1.4,1.4-2.7,2.7-4.1,4.1"/>
	<path class="st5" d="M117.7,36.1c-0.2,2-0.4,4-0.6,5.9"/>
	<path class="st5" d="M58.4,90.1c-2.2-0.2-4.5-0.5-6.7-0.7"/>
	<path class="st5" d="M170.9,102.1c-2.1-0.2-4.3-0.5-6.4-0.7"/>
	<path class="st5" d="M69.5,129.5c-1.6,1.3-3.2,2.6-4.9,3.9"/>
	<path class="st5" d="M158,58.1c-1.5,1.2-3,2.4-4.5,3.6"/>
	<path class="st5" d="M77.3,53.6c-1.2-1.5-2.4-3-3.6-4.5"/>
	<path class="st5" d="M149,142.4c-1.3-1.6-2.6-3.2-3.8-4.8"/>
	<path class="st5" d="M99.9,147.5c-0.5,2.3-1,4.5-1.5,6.8"/>
	<path class="st5" d="M124.2,37.2c-0.4,1.9-0.9,3.9-1.3,5.8"/>
	<path class="st5" d="M59,84.3c-2.1-0.5-4.1-0.9-6.2-1.4"/>
	<path class="st5" d="M169.9,108.6c-1.9-0.4-3.8-0.8-5.7-1.3"/>
	<path class="st5" d="M66,124.8c-1.7,1.1-3.4,2.2-5.2,3.3"/>
	<path class="st5" d="M161.8,63.5c-1.6,1-3.2,2.1-4.8,3.1"/>
	<path class="st5" d="M82.2,50.2c-1.1-1.7-2.1-3.3-3.2-5"/>
	<path class="st5" d="M143.6,146.3c-1.1-1.8-2.3-3.6-3.4-5.4"/>
	<path class="st5" d="M94.5,146c-0.7,2.2-1.5,4.4-2.2,6.6"/>
	<path class="st5" d="M130.3,38.9c-0.7,2-1.3,3.9-2,5.9"/>
	<path class="st5" d="M60.4,78.7c-2-0.7-4-1.3-5.9-2"/>
	<path class="st5" d="M168.2,114.8c-1.9-0.6-3.7-1.2-5.6-1.9"/>
	<path class="st5" d="M63.4,119.7c-1.9,0.9-3.8,1.9-5.7,2.8"/>
	<path class="st5" d="M165,69c-1.7,0.9-3.5,1.7-5.2,2.6"/>
	<path class="st5" d="M87.1,47.2c-0.9-1.7-1.7-3.4-2.6-5.1"/>
	<path class="st5" d="M138.1,149.4c-1-1.9-1.9-3.8-2.9-5.7"/>
	<path class="st5" d="M88.2,143.7c-1,2-1.9,4-2.9,6.1"/>
	<path class="st5" d="M137.4,41.8c-0.8,1.8-1.7,3.5-2.5,5.3"/>
	<path class="st5" d="M63.4,72.6c-2-1-4.1-2-6.1-2.9"/>
	<path class="st5" d="M165.3,121.8c-1.8-0.9-3.6-1.7-5.4-2.6"/>
	<path class="st5" d="M60.9,113.3c-2.1,0.7-4.2,1.5-6.2,2.2"/>
	<path class="st5" d="M167.9,76c-1.9,0.7-3.7,1.3-5.6,2"/>
	<path class="st5" d="M93.5,44.7c-0.6-1.8-1.3-3.7-1.9-5.5"/>
	<path class="st5" d="M131.1,152.4c-0.7-2.1-1.5-4.3-2.2-6.4"/>
	<path class="st5" d="M83.2,141c-1.2,1.9-2.4,3.8-3.6,5.7"/>
	<path class="st5" d="M142.9,44.8c-1,1.7-2.1,3.4-3.1,5"/>
	<path class="st5" d="M65.6,67.4c-1.7-1.1-3.5-2.2-5.2-3.2"/>
	<path class="st5" d="M162.3,127.4c-1.7-1-3.4-2.1-5-3.1"/>
	<path class="st5" d="M59.5,107.9c-2.2,0.5-4.4,1-6.6,1.5"/>
	<path class="st5" d="M169.7,82.1c-2.1,0.5-4.2,1-6.2,1.5"/>
	<path class="st5" d="M99,42.9c-0.4-1.8-0.9-3.7-1.3-5.5"/>
	<path class="st5" d="M125,154.1c-0.5-2.2-1-4.3-1.5-6.5"/>
	<path class="st5" d="M78.4,137.6c-1.4,1.8-2.8,3.5-4.2,5.3"/>
	<path class="st5" d="M148.4,48.6c-1.2,1.5-2.4,3-3.5,4.5"/>
	<path class="st5" d="M68.7,62.3c-1.5-1.2-3-2.4-4.5-3.6"/>
	<path class="st5" d="M158.5,132.8c-1.5-1.2-3.1-2.4-4.6-3.6"/>
	<path class="st5" d="M58.6,102.1c-2.3,0.3-4.5,0.5-6.8,0.8"/>
	<path class="st5" d="M170.8,88.6c-2.1,0.3-4.2,0.5-6.4,0.8"/>
	<path class="st5" d="M104.9,42c-0.2-1.9-0.5-3.8-0.7-5.7"/>
	<path class="st5" d="M72.4,57.8c-1.3-1.3-2.7-2.6-4-3.9"/>
	<path class="st5" d="M154.3,137.6c-1.5-1.4-2.9-2.8-4.4-4.3"/>
	<path class="st5" d="M58,96.5c-2.2,0-4.4,0.1-6.6,0.1"/>
	<path class="st5" d="M171.3,95c-2.1,0-4.2,0.1-6.3,0.1"/>
	<path class="st5" d="M110.6,41.7c0-2-0.1-3.9-0.1-5.9"/>
	<path class="st5" d="M69.7,62.1c2.1,0.1,4.4-0.6,6.5,0.3c2.6,1,2.7,4.4,3.2,6.8c0.2,1.2,0.1,2.1,1.1,2.9c0.8,0.6,1.9,0.7,2.6,1.4
		c2.1,1.9,3.3,6,4,8.7c0.4,1.4,0.8,2.7,0.9,4.3c0.1,1.2-0.2,2.1,0.7,2.9c0.7,0.6,2.4,0.8,3.3,0.8c1.7-0.1,1.8-0.7,1.7-2.2
		c-0.6-9.7,16.3-2.4,21-8.7c1.9-2.6,0.9-7.6,4.1-9.2c1.8-0.9,6-0.2,7-2.3c1.3-2.5-1.8-6.9-3.1-8.9c-0.9-1.3-2.8-3.1-2.5-4.9
		c0.4-2.1,3.9-4.1,5.6-5.2c1-0.7,1.8-1.2,1.8-2.6c0-1.5,0.4-1.4-1-1.9c-2.5-0.9-4.7-1.1-7.1-1.5c-2.4-0.4-4.6-0.7-6.9-0.7
		c-4.8,0-8.8,0.2-13.5,1.4c-1.3,0.3-3.2,0.9-4.5,1.3c-1.1,0.3-2.3,0.9-3.5,1.3c-2.4,0.7-4.8,2.3-7.1,3.6c-2.6,1.5-4.8,3.3-7.2,5.1
		c-1.9,1.5-3.5,3.3-5.1,4.9C71,60.6,70.4,61.4,69.7,62.1z"/>
</g>
<g>
	<path class="st5" d="M105.7,148.4c-0.2,2.3-0.5,4.6-0.7,6.9"/>
	<path class="st5" d="M118.5,155.3c-0.3-2.3-0.5-4.5-0.8-6.8"/>
	<path class="st5" d="M112.1,155.7c0-2.5-0.1-4.9-0.1-7.4"/>
	<path class="st4" d="M120.2,20.4c-26.8-0.5-49.8,16.5-58.1,40.5c2-3.2,4.4-6.1,7.3-8.8c10.3-10.3,25.6-16.7,40.2-16.7
		c0.2,0,0.3,0,0.5,0c0.2,0,0.3,0,0.5,0c5.5,0,10.9,0.8,15.9,2.4c10.4,2.4,19.8,7.8,27.9,15.2c5.2,4.8,9,10.6,11.7,17
		c3.7,7.9,5.6,16.7,6,25.4c0,1.1,0,2.2,0,3.3c0.2,4.9-0.4,9.5-1.7,14c5.6-9,8.9-19.5,9.1-30.8C180.1,48.5,153.6,21,120.2,20.4z"/>
	<path class="st5" d="M120.1,27.5c-15-0.3-28.6,5.7-38.4,15.4c8.6-4.8,18.4-7.5,28-7.5c0.1,0,0.3,0,0.4,0c0.2,0,0.4,0,0.6,0
		c5.5,0,10.9,0.8,15.9,2.4c10.4,2.4,19.8,7.8,27.9,15.2c5.2,4.8,9,10.6,11.7,17c2.9,6.2,4.7,12.9,5.5,19.7c0.4-2.6,0.7-5.2,0.8-7.9
		C172.9,52.3,149.5,28,120.1,27.5z"/>
	<path class="st5" d="M77.9,37.6c1.3,1.4,2.7,2.8,4,4.2"/>
	<path class="st5" d="M172.1,87.4c2.3,0.3,4.6,0.6,6.9,0.9"/>
	<path class="st5" d="M126.9,21.3c-0.3,2.1-0.5,4.3-0.8,6.4"/>
	<path class="st5" d="M82.7,33.4c1.2,1.5,2.3,3,3.5,4.5"/>
	<path class="st5" d="M166.8,44c-1.6,1.3-3.2,2.5-4.8,3.8"/>
	<path class="st5" d="M172.4,93.4c1.8,0.4,3.6,0.9,5.4,1.3"/>
	<path class="st5" d="M133.4,22.4c-0.5,1.9-0.9,3.8-1.4,5.7"/>
	<path class="st5" d="M88.1,29.6c1,1.6,2,3.3,3,4.9"/>
	<path class="st5" d="M170.6,49.4c-1.8,1.1-3.6,2.2-5.5,3.3"/>
	<path class="st5" d="M172.9,99.7c1,0.4,2,0.7,3.1,1.1"/>
	<path class="st5" d="M139.5,24.2c-0.7,1.8-1.3,3.7-2,5.5"/>
	<path class="st5" d="M93.7,26.6c0.8,1.8,1.7,3.5,2.5,5.3"/>
	<path class="st5" d="M173.6,55c-1.9,0.9-3.9,1.8-5.8,2.7"/>
	<path class="st5" d="M146.5,27.2c-0.9,1.8-1.8,3.6-2.7,5.3"/>
	<path class="st5" d="M100.8,23.8c0.6,1.9,1.2,3.7,1.8,5.6"/>
	<path class="st5" d="M176.5,62.1c-2.1,0.7-4.3,1.4-6.4,2.1"/>
	<path class="st5" d="M69.1,48.2c0.7,0.4,1.4,0.9,2.1,1.3"/>
	<path class="st5" d="M152.1,30.4c-1.1,1.7-2.1,3.3-3.2,5"/>
	<path class="st5" d="M106.9,22.1c0.4,2.1,0.9,4.2,1.3,6.3"/>
	<path class="st5" d="M178.1,68.2c-2.2,0.5-4.3,0.9-6.5,1.4"/>
	<path class="st5" d="M73,42.8c1,0.8,2,1.6,2.9,2.4"/>
	<path class="st5" d="M157.4,34.3c-1.2,1.5-2.5,3-3.7,4.5"/>
	<path class="st5" d="M113.5,21.1c0.2,2.1,0.4,4.3,0.6,6.4"/>
	<path class="st5" d="M179.1,74.7c-2.3,0.2-4.6,0.5-6.8,0.7"/>
	<path class="st5" d="M162.1,38.6c-1.5,1.4-2.9,2.9-4.4,4.3"/>
	<path class="st5" d="M119.8,20.8c0,2.1,0,4.2,0,6.3"/>
	<path class="st5" d="M179.4,81.1c-2.5,0-4.9,0-7.4,0"/>
</g>
</svg>
