<svg id="Capa_1" data-name="Capa 1" xmlns="http://www.w3.org/2000/svg" viewBox="0 0 81.03 100"><defs><style>.cls-1{fill:#80b241;}.cls-2{fill:#44878d;}</style></defs><path class="cls-1" d="M266,423.34h63.24a8.86,8.86,0,0,0,8.6-6.7H257.41a8.9,8.9,0,0,0,3.16,4.82A8.81,8.81,0,0,0,266,423.34Z" transform="translate(-257.12 -323.34)"/><path class="cls-2" d="M326.86,352.56c0-21-22.35-36.95-44.52-25.26a26.41,26.41,0,0,0-13.91,23.41v12.63h-5.75a5.57,5.57,0,0,0-5.56,5.56V413h81V368.9a5.57,5.57,0,0,0-5.56-5.56h-5.92V352.56Zm-25.5,41.36v7h-7.45v-7c-3.19-2-4.75-6.35-2-10.65A3.73,3.73,0,0,1,293,382.2c5.71-3.76,11.75.24,11.75,5.66a7.05,7.05,0,0,1-.91,3.47A7.22,7.22,0,0,1,301.36,393.92Zm12.56-30.58H281.23V350.75a13.55,13.55,0,0,1,6.24-11.46c12.26-7.78,25.13,0,26.46,11.36Z" transform="translate(-257.12 -323.34)"/></svg>