<?xml version="1.0" encoding="utf-8"?>
<!-- Generator: Adobe Illustrator 26.0.0, SVG Export Plug-In . SVG Version: 6.00 Build 0)  -->
<svg version="1.1" id="Capa_1" xmlns="http://www.w3.org/2000/svg" xmlns:xlink="http://www.w3.org/1999/xlink" x="0px" y="0px"
	 viewBox="0 0 230 210" style="enable-background:new 0 0 230 210;" xml:space="preserve">
<style type="text/css">
	.st0{fill:none;}
	.st1{enable-background:new    ;}
	.st2{fill:#43878D;}
	.st3{fill:none;stroke:#FFFFFF;stroke-miterlimit:10;}
	.st4{fill:none;stroke:#FFFFFF;stroke-width:3;stroke-miterlimit:10;}
	.st5{fill:none;stroke:#FFFFFF;stroke-width:2;stroke-miterlimit:10;}
</style>
<rect y="173" class="st0" width="230" height="37"/>
<g class="st1">
	<path class="st2" d="M36,196c-0.6,0-1.2-0.1-1.7-0.3s-0.9-0.5-1.3-0.9c-0.4-0.4-0.7-0.8-0.9-1.4s-0.3-1.1-0.3-1.7
		c0-0.6,0.1-1.2,0.3-1.7c0.2-0.5,0.5-1,0.9-1.4c0.4-0.4,0.8-0.7,1.3-0.9c0.5-0.2,1.1-0.3,1.7-0.3c0.4,0,0.8,0.1,1.2,0.2
		c0.4,0.1,0.7,0.3,1.1,0.5c0.3,0.2,0.6,0.5,0.8,0.8l-1,1.1c-0.3-0.3-0.6-0.6-1-0.7c-0.3-0.2-0.7-0.3-1.1-0.3c-0.4,0-0.7,0.1-1,0.2
		c-0.3,0.1-0.6,0.3-0.8,0.6s-0.4,0.5-0.6,0.9c-0.1,0.3-0.2,0.7-0.2,1.1c0,0.4,0.1,0.8,0.2,1.2s0.3,0.6,0.6,0.9
		c0.2,0.2,0.5,0.4,0.9,0.6s0.7,0.2,1.1,0.2c0.3,0,0.5,0,0.8-0.1c0.2-0.1,0.5-0.2,0.7-0.3c0.2-0.1,0.4-0.3,0.6-0.5l0.8,1.2
		c-0.2,0.2-0.4,0.4-0.8,0.6c-0.3,0.2-0.7,0.3-1.1,0.4C36.8,196,36.4,196,36,196z"/>
	<path class="st2" d="M43.3,196c-0.7,0-1.2-0.1-1.8-0.4c-0.5-0.3-0.9-0.7-1.2-1.1c-0.3-0.5-0.4-1-0.4-1.7c0-0.5,0.1-0.9,0.2-1.4
		s0.4-0.8,0.7-1.1c0.3-0.3,0.6-0.5,1-0.7s0.8-0.2,1.3-0.2c0.4,0,0.8,0.1,1.2,0.2c0.4,0.2,0.7,0.4,0.9,0.7c0.3,0.3,0.5,0.6,0.6,1
		c0.1,0.4,0.2,0.8,0.2,1.2l0,0.5H41l-0.3-1h4.2l-0.2,0.2V192c0-0.2-0.1-0.5-0.2-0.6c-0.1-0.2-0.3-0.3-0.5-0.4s-0.4-0.2-0.7-0.2
		c-0.4,0-0.7,0.1-1,0.2c-0.3,0.1-0.5,0.4-0.6,0.7c-0.1,0.3-0.2,0.6-0.2,1.1c0,0.4,0.1,0.8,0.3,1.1c0.2,0.3,0.4,0.5,0.7,0.7
		c0.3,0.2,0.7,0.3,1.1,0.3c0.3,0,0.6,0,0.8-0.1s0.5-0.3,0.8-0.5l0.7,1c-0.2,0.2-0.5,0.4-0.7,0.5c-0.3,0.1-0.6,0.2-0.9,0.3
		C43.9,196,43.6,196,43.3,196z"/>
	<path class="st2" d="M47.4,198.6v-9h1.4l0,1.4l-0.3-0.1c0-0.2,0.2-0.5,0.4-0.7s0.5-0.4,0.8-0.5c0.3-0.1,0.7-0.2,1-0.2
		c0.6,0,1.1,0.1,1.5,0.4s0.8,0.7,1,1.2c0.3,0.5,0.4,1.1,0.4,1.7s-0.1,1.2-0.4,1.7c-0.2,0.5-0.6,0.9-1,1.2c-0.4,0.3-0.9,0.4-1.5,0.4
		c-0.4,0-0.7-0.1-1.1-0.2c-0.3-0.1-0.6-0.3-0.9-0.6s-0.4-0.5-0.4-0.7l0.4-0.2v4.2H47.4z M50.6,194.7c0.3,0,0.6-0.1,0.9-0.3
		s0.5-0.4,0.6-0.7c0.2-0.3,0.2-0.6,0.2-1s-0.1-0.7-0.2-1s-0.4-0.5-0.6-0.7c-0.3-0.2-0.6-0.3-0.9-0.3c-0.4,0-0.7,0.1-0.9,0.3
		c-0.3,0.2-0.5,0.4-0.6,0.7c-0.2,0.3-0.2,0.6-0.2,1s0.1,0.7,0.2,1c0.2,0.3,0.4,0.5,0.6,0.7C49.9,194.6,50.2,194.7,50.6,194.7z"/>
	<path class="st2" d="M56,188.3c-0.3,0-0.5-0.1-0.7-0.2c-0.2-0.1-0.2-0.4-0.2-0.6c0-0.3,0.1-0.5,0.3-0.6c0.2-0.2,0.4-0.2,0.7-0.2
		c0.3,0,0.5,0.1,0.7,0.2c0.2,0.1,0.2,0.4,0.2,0.6c0,0.2-0.1,0.5-0.3,0.6S56.2,188.3,56,188.3z M55.2,195.9v-6.3h1.5v6.3H55.2z"/>
	<path class="st2" d="M58.6,195.9V187h1.5v8.9H58.6z"/>
	<path class="st2" d="M61.8,195.9V187h1.5v8.9H61.8z"/>
	<path class="st2" d="M67.8,196c-0.6,0-1.2-0.1-1.7-0.4s-0.9-0.7-1.2-1.2c-0.3-0.5-0.4-1.1-0.4-1.7s0.1-1.2,0.4-1.7
		c0.3-0.5,0.7-0.9,1.2-1.2c0.5-0.3,1.1-0.4,1.7-0.4c0.6,0,1.2,0.1,1.7,0.4c0.5,0.3,0.9,0.7,1.2,1.2c0.3,0.5,0.4,1.1,0.4,1.7
		s-0.1,1.2-0.4,1.7c-0.3,0.5-0.7,0.9-1.2,1.2S68.4,196,67.8,196z M67.8,194.7c0.3,0,0.7-0.1,0.9-0.3c0.3-0.2,0.5-0.4,0.6-0.7
		c0.2-0.3,0.2-0.6,0.2-1c0-0.4-0.1-0.7-0.2-1c-0.2-0.3-0.4-0.5-0.6-0.7c-0.3-0.2-0.6-0.3-0.9-0.3c-0.3,0-0.7,0.1-0.9,0.3
		s-0.5,0.4-0.6,0.7c-0.2,0.3-0.2,0.6-0.2,1s0.1,0.7,0.2,1c0.2,0.3,0.4,0.5,0.6,0.7C67.1,194.6,67.4,194.7,67.8,194.7z"/>
	<path class="st2" d="M78.5,196c-0.6,0-1.1-0.1-1.5-0.4c-0.4-0.3-0.8-0.7-1.1-1.2c-0.3-0.5-0.4-1.1-0.4-1.7c0-0.6,0.1-1.2,0.4-1.7
		c0.3-0.5,0.6-0.9,1.1-1.2c0.4-0.3,0.9-0.4,1.5-0.4c0.3,0,0.6,0,0.9,0.1c0.3,0.1,0.5,0.2,0.8,0.4s0.4,0.3,0.5,0.5s0.2,0.4,0.2,0.6
		l-0.4,0V187h1.5v8.9h-1.4l0-1.5l0.3,0c0,0.2-0.1,0.4-0.2,0.6c-0.1,0.2-0.3,0.4-0.5,0.5c-0.2,0.2-0.5,0.3-0.7,0.4
		C79,196,78.7,196,78.5,196z M78.7,194.8c0.3,0,0.6-0.1,0.9-0.3c0.3-0.2,0.5-0.4,0.6-0.7c0.1-0.3,0.2-0.7,0.2-1.1s-0.1-0.8-0.2-1.1
		c-0.1-0.3-0.4-0.5-0.6-0.7c-0.3-0.2-0.6-0.3-0.9-0.3c-0.4,0-0.7,0.1-0.9,0.3c-0.3,0.2-0.5,0.4-0.6,0.7c-0.2,0.3-0.2,0.7-0.2,1.1
		s0.1,0.8,0.2,1.1c0.2,0.3,0.4,0.5,0.6,0.7C78.1,194.7,78.4,194.8,78.7,194.8z"/>
	<path class="st2" d="M86.6,196c-0.7,0-1.2-0.1-1.8-0.4c-0.5-0.3-0.9-0.7-1.2-1.1c-0.3-0.5-0.4-1-0.4-1.7c0-0.5,0.1-0.9,0.2-1.4
		s0.4-0.8,0.7-1.1c0.3-0.3,0.6-0.5,1-0.7s0.8-0.2,1.3-0.2c0.4,0,0.8,0.1,1.2,0.2c0.4,0.2,0.7,0.4,0.9,0.7c0.3,0.3,0.5,0.6,0.6,1
		c0.1,0.4,0.2,0.8,0.2,1.2l0,0.5h-5.1l-0.3-1h4.2l-0.2,0.2V192c0-0.2-0.1-0.5-0.2-0.6c-0.1-0.2-0.3-0.3-0.5-0.4s-0.4-0.2-0.7-0.2
		c-0.4,0-0.7,0.1-1,0.2c-0.3,0.1-0.5,0.4-0.6,0.7c-0.1,0.3-0.2,0.6-0.2,1.1c0,0.4,0.1,0.8,0.3,1.1c0.2,0.3,0.4,0.5,0.7,0.7
		c0.3,0.2,0.7,0.3,1.1,0.3c0.3,0,0.6,0,0.8-0.1s0.5-0.3,0.8-0.5l0.7,1c-0.2,0.2-0.5,0.4-0.7,0.5c-0.3,0.1-0.6,0.2-0.9,0.3
		C87.2,196,86.9,196,86.6,196z"/>
	<path class="st2" d="M96.7,196c-0.6,0-1.1-0.1-1.5-0.4c-0.4-0.3-0.8-0.7-1.1-1.2c-0.3-0.5-0.4-1.1-0.4-1.7c0-0.6,0.1-1.2,0.4-1.7
		c0.3-0.5,0.6-0.9,1.1-1.2c0.4-0.3,0.9-0.4,1.5-0.4c0.3,0,0.6,0,0.9,0.1c0.3,0.1,0.5,0.2,0.8,0.4s0.4,0.3,0.5,0.5s0.2,0.4,0.2,0.6
		l-0.4,0V187h1.5v8.9h-1.4l0-1.5l0.3,0c0,0.2-0.1,0.4-0.2,0.6c-0.1,0.2-0.3,0.4-0.5,0.5c-0.2,0.2-0.5,0.3-0.7,0.4
		C97.3,196,97,196,96.7,196z M97,194.8c0.3,0,0.6-0.1,0.9-0.3c0.3-0.2,0.5-0.4,0.6-0.7c0.1-0.3,0.2-0.7,0.2-1.1s-0.1-0.8-0.2-1.1
		c-0.1-0.3-0.4-0.5-0.6-0.7c-0.3-0.2-0.6-0.3-0.9-0.3c-0.4,0-0.7,0.1-0.9,0.3c-0.3,0.2-0.5,0.4-0.6,0.7c-0.2,0.3-0.2,0.7-0.2,1.1
		s0.1,0.8,0.2,1.1c0.2,0.3,0.4,0.5,0.6,0.7C96.3,194.7,96.6,194.8,97,194.8z"/>
	<path class="st2" d="M102.7,188.3c-0.3,0-0.5-0.1-0.7-0.2c-0.2-0.1-0.2-0.4-0.2-0.6c0-0.3,0.1-0.5,0.3-0.6c0.2-0.2,0.4-0.2,0.7-0.2
		c0.3,0,0.5,0.1,0.7,0.2c0.2,0.1,0.2,0.4,0.2,0.6c0,0.2-0.1,0.5-0.3,0.6S103,188.3,102.7,188.3z M102,195.9v-6.3h1.5v6.3H102z"/>
	<path class="st2" d="M108.3,196c-0.7,0-1.2-0.1-1.8-0.4c-0.5-0.3-0.9-0.7-1.2-1.1c-0.3-0.5-0.4-1-0.4-1.7c0-0.5,0.1-0.9,0.2-1.4
		s0.4-0.8,0.7-1.1c0.3-0.3,0.6-0.5,1-0.7s0.8-0.2,1.3-0.2c0.4,0,0.8,0.1,1.2,0.2c0.4,0.2,0.7,0.4,0.9,0.7c0.3,0.3,0.5,0.6,0.6,1
		c0.1,0.4,0.2,0.8,0.2,1.2l0,0.5h-5.1l-0.3-1h4.2l-0.2,0.2V192c0-0.2-0.1-0.5-0.2-0.6c-0.1-0.2-0.3-0.3-0.5-0.4s-0.4-0.2-0.7-0.2
		c-0.4,0-0.7,0.1-1,0.2c-0.3,0.1-0.5,0.4-0.6,0.7c-0.1,0.3-0.2,0.6-0.2,1.1c0,0.4,0.1,0.8,0.3,1.1c0.2,0.3,0.4,0.5,0.7,0.7
		c0.3,0.2,0.7,0.3,1.1,0.3c0.3,0,0.6,0,0.8-0.1s0.5-0.3,0.8-0.5l0.7,1c-0.2,0.2-0.5,0.4-0.7,0.5c-0.3,0.1-0.6,0.2-0.9,0.3
		C108.9,196,108.6,196,108.3,196z"/>
	<path class="st2" d="M112.4,195.9v-6.3h1.4l0,1.3l-0.3,0.1c0.1-0.3,0.2-0.5,0.5-0.8c0.2-0.2,0.5-0.4,0.8-0.6c0.3-0.1,0.7-0.2,1-0.2
		c0.5,0,0.9,0.1,1.2,0.3s0.6,0.5,0.7,0.9c0.2,0.4,0.2,0.9,0.2,1.4v3.9h-1.5v-3.8c0-0.3,0-0.6-0.1-0.8c-0.1-0.2-0.2-0.4-0.4-0.5
		c-0.2-0.1-0.4-0.1-0.7-0.1c-0.2,0-0.4,0-0.6,0.1c-0.2,0.1-0.3,0.2-0.5,0.3c-0.1,0.1-0.2,0.3-0.3,0.4s-0.1,0.3-0.1,0.5v3.8h-0.7
		c-0.1,0-0.3,0-0.4,0S112.5,195.9,112.4,195.9z"/>
	<path class="st2" d="M119.1,191v-1.4h4.1v1.4H119.1z M120.4,195.9V188h1.5v7.9H120.4z"/>
	<path class="st2" d="M127.3,196c-0.7,0-1.2-0.1-1.8-0.4s-0.9-0.7-1.2-1.1c-0.3-0.5-0.4-1-0.4-1.7c0-0.5,0.1-0.9,0.2-1.4
		s0.4-0.8,0.7-1.1c0.3-0.3,0.6-0.5,1-0.7c0.4-0.2,0.8-0.2,1.3-0.2c0.4,0,0.8,0.1,1.2,0.2c0.4,0.2,0.7,0.4,0.9,0.7
		c0.3,0.3,0.5,0.6,0.6,1c0.1,0.4,0.2,0.8,0.2,1.2l0,0.5h-5.1l-0.3-1h4.2l-0.2,0.2V192c0-0.2-0.1-0.5-0.2-0.6
		c-0.1-0.2-0.3-0.3-0.5-0.4s-0.4-0.2-0.7-0.2c-0.4,0-0.7,0.1-1,0.2c-0.3,0.1-0.5,0.4-0.6,0.7s-0.2,0.6-0.2,1.1
		c0,0.4,0.1,0.8,0.3,1.1c0.2,0.3,0.4,0.5,0.7,0.7s0.7,0.3,1.1,0.3c0.3,0,0.6,0,0.8-0.1s0.5-0.3,0.8-0.5l0.7,1
		c-0.2,0.2-0.5,0.4-0.7,0.5c-0.3,0.1-0.6,0.2-0.9,0.3C127.8,196,127.5,196,127.3,196z"/>
	<path class="st2" d="M133.4,196c-0.6,0-1-0.1-1.5-0.3c-0.4-0.2-0.8-0.5-1.1-0.8l0.9-0.8c0.2,0.3,0.5,0.5,0.8,0.6s0.6,0.2,0.9,0.2
		c0.1,0,0.3,0,0.4,0c0.1,0,0.2-0.1,0.3-0.1s0.1-0.1,0.2-0.2c0-0.1,0.1-0.2,0.1-0.3c0-0.2-0.1-0.3-0.2-0.5c-0.1,0-0.2-0.1-0.4-0.2
		c-0.2-0.1-0.4-0.1-0.7-0.2c-0.4-0.1-0.8-0.2-1.1-0.4c-0.3-0.1-0.5-0.3-0.7-0.5c-0.1-0.2-0.2-0.3-0.3-0.5c-0.1-0.2-0.1-0.4-0.1-0.6
		c0-0.4,0.1-0.7,0.3-1s0.5-0.5,0.8-0.7c0.4-0.2,0.7-0.2,1.2-0.2c0.3,0,0.6,0,0.9,0.1s0.6,0.2,0.8,0.3c0.3,0.1,0.5,0.3,0.7,0.5
		l-0.8,0.9c-0.1-0.1-0.3-0.3-0.5-0.4c-0.2-0.1-0.4-0.2-0.5-0.3c-0.2-0.1-0.4-0.1-0.5-0.1c-0.2,0-0.3,0-0.4,0c-0.1,0-0.2,0.1-0.3,0.1
		c-0.1,0.1-0.1,0.1-0.2,0.2c0,0.1-0.1,0.2-0.1,0.3c0,0.1,0,0.2,0.1,0.3s0.1,0.2,0.2,0.2s0.2,0.1,0.4,0.2c0.2,0.1,0.4,0.1,0.7,0.2
		c0.4,0.1,0.7,0.2,1,0.3c0.3,0.1,0.5,0.3,0.6,0.4c0.2,0.1,0.3,0.3,0.3,0.5c0.1,0.2,0.1,0.4,0.1,0.6c0,0.4-0.1,0.7-0.3,1
		s-0.5,0.5-0.9,0.7C134.3,196,133.9,196,133.4,196z"/>
	<path class="st2" d="M143.2,196c-0.6,0-1.1-0.1-1.5-0.4c-0.4-0.3-0.8-0.7-1.1-1.2s-0.4-1.1-0.4-1.7c0-0.6,0.1-1.2,0.4-1.7
		c0.3-0.5,0.6-0.9,1-1.2c0.4-0.3,0.9-0.4,1.5-0.4c0.3,0,0.6,0,0.9,0.1c0.3,0.1,0.5,0.2,0.8,0.4c0.2,0.2,0.4,0.3,0.5,0.5
		s0.2,0.4,0.2,0.6l-0.4,0V187h1.5v8.9h-1.4l0-1.5l0.3,0c0,0.2-0.1,0.4-0.2,0.6c-0.1,0.2-0.3,0.4-0.5,0.5c-0.2,0.2-0.5,0.3-0.7,0.4
		C143.8,196,143.5,196,143.2,196z M143.5,194.8c0.3,0,0.6-0.1,0.9-0.3c0.3-0.2,0.5-0.4,0.6-0.7c0.1-0.3,0.2-0.7,0.2-1.1
		s-0.1-0.8-0.2-1.1c-0.1-0.3-0.4-0.5-0.6-0.7c-0.3-0.2-0.6-0.3-0.9-0.3c-0.4,0-0.7,0.1-0.9,0.3c-0.3,0.2-0.5,0.4-0.6,0.7
		c-0.2,0.3-0.2,0.7-0.2,1.1s0.1,0.8,0.2,1.1c0.2,0.3,0.4,0.5,0.6,0.7C142.8,194.7,143.1,194.8,143.5,194.8z"/>
	<path class="st2" d="M151.3,196c-0.7,0-1.2-0.1-1.8-0.4s-0.9-0.7-1.2-1.1c-0.3-0.5-0.4-1-0.4-1.7c0-0.5,0.1-0.9,0.2-1.4
		s0.4-0.8,0.7-1.1c0.3-0.3,0.6-0.5,1-0.7c0.4-0.2,0.8-0.2,1.3-0.2c0.4,0,0.8,0.1,1.2,0.2c0.4,0.2,0.7,0.4,0.9,0.7
		c0.3,0.3,0.5,0.6,0.6,1c0.1,0.4,0.2,0.8,0.2,1.2l0,0.5h-5.1l-0.3-1h4.2l-0.2,0.2V192c0-0.2-0.1-0.5-0.2-0.6
		c-0.1-0.2-0.3-0.3-0.5-0.4s-0.4-0.2-0.7-0.2c-0.4,0-0.7,0.1-1,0.2c-0.3,0.1-0.5,0.4-0.6,0.7s-0.2,0.6-0.2,1.1
		c0,0.4,0.1,0.8,0.3,1.1c0.2,0.3,0.4,0.5,0.7,0.7s0.7,0.3,1.1,0.3c0.3,0,0.6,0,0.8-0.1s0.5-0.3,0.8-0.5l0.7,1
		c-0.2,0.2-0.5,0.4-0.7,0.5c-0.3,0.1-0.6,0.2-0.9,0.3C151.9,196,151.6,196,151.3,196z"/>
	<path class="st2" d="M162.4,196c-0.3,0-0.6,0-0.8-0.1c-0.3-0.1-0.5-0.2-0.7-0.3c-0.2-0.1-0.4-0.3-0.5-0.5c-0.1-0.2-0.2-0.4-0.3-0.5
		l0.3-0.2l0,1.5h-1.4V187h1.5v4l-0.3-0.1c0-0.2,0.1-0.4,0.3-0.5c0.1-0.2,0.3-0.3,0.5-0.5c0.2-0.1,0.4-0.3,0.7-0.3s0.5-0.1,0.8-0.1
		c0.6,0,1.1,0.1,1.5,0.4c0.4,0.3,0.8,0.7,1,1.2s0.4,1.1,0.4,1.7c0,0.6-0.1,1.2-0.4,1.7s-0.6,0.9-1,1.2
		C163.4,195.9,162.9,196,162.4,196z M162.1,194.7c0.3,0,0.6-0.1,0.9-0.3c0.3-0.2,0.5-0.4,0.6-0.7c0.2-0.3,0.2-0.6,0.2-1
		c0-0.4-0.1-0.7-0.2-1c-0.1-0.3-0.4-0.5-0.6-0.7s-0.6-0.3-0.9-0.3c-0.4,0-0.7,0.1-0.9,0.3s-0.5,0.4-0.6,0.7c-0.2,0.3-0.2,0.6-0.2,1
		c0,0.4,0.1,0.7,0.2,1c0.2,0.3,0.4,0.5,0.6,0.7S161.7,194.7,162.1,194.7z"/>
	<path class="st2" d="M168.4,196c-0.4,0-0.8-0.1-1.1-0.2s-0.6-0.4-0.8-0.7c-0.2-0.3-0.3-0.6-0.3-1c0-0.3,0.1-0.6,0.2-0.9
		s0.3-0.5,0.5-0.6s0.5-0.3,0.9-0.4c0.4-0.1,0.8-0.1,1.2-0.1h1.8l-0.1,1.1H169c-0.2,0-0.4,0-0.6,0.1c-0.2,0-0.3,0.1-0.4,0.2
		s-0.2,0.2-0.3,0.3c-0.1,0.1-0.1,0.2-0.1,0.4c0,0.2,0,0.3,0.1,0.4s0.2,0.2,0.3,0.3c0.1,0.1,0.3,0.1,0.5,0.1c0.3,0,0.5,0,0.8-0.1
		c0.2-0.1,0.4-0.2,0.6-0.4c0.2-0.2,0.3-0.3,0.4-0.5l0.3,0.8c-0.2,0.3-0.4,0.5-0.6,0.7s-0.5,0.4-0.8,0.5C169,196,168.7,196,168.4,196
		z M170.2,195.9v-4c0-0.3-0.1-0.6-0.3-0.8c-0.2-0.2-0.5-0.3-0.9-0.3c-0.3,0-0.6,0.1-0.9,0.2c-0.3,0.1-0.5,0.3-0.8,0.6l-0.9-0.9
		c0.4-0.4,0.8-0.7,1.2-0.9s0.9-0.3,1.5-0.3c0.5,0,0.9,0.1,1.3,0.2c0.4,0.2,0.6,0.4,0.8,0.7s0.3,0.7,0.3,1.2v4.3H170.2z"/>
	<path class="st2" d="M173.1,195.9v-6.3h1.4l0,1.3l-0.2,0.1c0.1-0.2,0.2-0.4,0.3-0.6c0.1-0.2,0.3-0.3,0.5-0.5
		c0.2-0.1,0.4-0.2,0.6-0.3c0.2-0.1,0.5-0.1,0.7-0.1c0.3,0,0.6,0.1,0.9,0.2c0.3,0.1,0.5,0.3,0.7,0.5c0.2,0.2,0.3,0.5,0.4,0.9l-0.2,0
		l0.1-0.2c0.1-0.2,0.2-0.4,0.4-0.5s0.3-0.3,0.5-0.4s0.4-0.2,0.6-0.3c0.2-0.1,0.4-0.1,0.6-0.1c0.5,0,0.9,0.1,1.2,0.3
		c0.3,0.2,0.6,0.5,0.7,0.9c0.2,0.4,0.2,0.9,0.2,1.5v3.8h-1.5v-3.7c0-0.5-0.1-0.8-0.3-1.1c-0.2-0.2-0.5-0.3-0.9-0.3
		c-0.2,0-0.4,0-0.6,0.1c-0.2,0.1-0.3,0.2-0.5,0.3c-0.1,0.1-0.2,0.3-0.3,0.4c-0.1,0.2-0.1,0.3-0.1,0.5v3.8h-1.5v-3.7
		c0-0.5-0.1-0.8-0.3-1c-0.2-0.2-0.5-0.4-0.8-0.4c-0.2,0-0.4,0-0.6,0.1c-0.2,0.1-0.3,0.2-0.5,0.3c-0.1,0.1-0.2,0.3-0.3,0.4
		c-0.1,0.2-0.1,0.3-0.1,0.5v3.8H173.1z"/>
	<path class="st2" d="M187.8,196c-0.3,0-0.6,0-0.8-0.1c-0.3-0.1-0.5-0.2-0.7-0.3c-0.2-0.1-0.4-0.3-0.5-0.5c-0.1-0.2-0.2-0.4-0.3-0.5
		l0.3-0.2l0,1.5h-1.4V187h1.5v4l-0.3-0.1c0-0.2,0.1-0.4,0.3-0.5c0.1-0.2,0.3-0.3,0.5-0.5c0.2-0.1,0.4-0.3,0.7-0.3s0.5-0.1,0.8-0.1
		c0.6,0,1.1,0.1,1.5,0.4c0.4,0.3,0.8,0.7,1,1.2s0.4,1.1,0.4,1.7c0,0.6-0.1,1.2-0.4,1.7s-0.6,0.9-1,1.2
		C188.8,195.9,188.3,196,187.8,196z M187.5,194.7c0.3,0,0.6-0.1,0.9-0.3c0.3-0.2,0.5-0.4,0.6-0.7c0.2-0.3,0.2-0.6,0.2-1
		c0-0.4-0.1-0.7-0.2-1c-0.1-0.3-0.4-0.5-0.6-0.7s-0.6-0.3-0.9-0.3c-0.4,0-0.7,0.1-0.9,0.3s-0.5,0.4-0.6,0.7c-0.2,0.3-0.2,0.6-0.2,1
		c0,0.4,0.1,0.7,0.2,1c0.2,0.3,0.4,0.5,0.6,0.7S187.1,194.7,187.5,194.7z"/>
	<path class="st2" d="M194.2,196c-0.5,0-0.8-0.1-1.2-0.3s-0.6-0.5-0.8-0.9c-0.2-0.4-0.3-0.8-0.3-1.4v-3.9h1.5v3.6
		c0,0.5,0.1,0.9,0.4,1.2c0.2,0.3,0.6,0.4,1,0.4c0.2,0,0.4,0,0.6-0.1c0.2-0.1,0.3-0.2,0.5-0.3s0.2-0.3,0.3-0.5
		c0.1-0.2,0.1-0.4,0.1-0.6v-3.8h1.5v6.3h-1.4l0-1.3l0.3-0.1c-0.1,0.3-0.3,0.6-0.5,0.8c-0.2,0.2-0.5,0.4-0.8,0.6
		C194.9,196,194.5,196,194.2,196z"/>
</g>
<image style="overflow:visible;enable-background:new    ;" width="249" height="187" xlink:href="fondo tips.png"  transform="matrix(0.9237 0 0 0.9165 0 0)">
</image>
<g>
	<line class="st3" x1="134.1" y1="59.8" x2="138.1" y2="73.6"/>
	<line class="st3" x1="138.9" y1="59.5" x2="143.3" y2="73.9"/>
	<line class="st3" x1="157.1" y1="68.9" x2="151.5" y2="54.8"/>
	<line class="st3" x1="143.1" y1="57.3" x2="147.8" y2="72.3"/>
	<line class="st3" x1="163.6" y1="50.8" x2="167.5" y2="60.7"/>
	<line class="st3" x1="159.8" y1="51.7" x2="165" y2="64.1"/>
	<path class="st4" d="M80.7,87.6c0,0,7.7,5.1,5.1,12.5"/>
	<path class="st4" d="M131.9,69.6c0,0,0.4,6.6,20.1,1.9s17.4-15.6,17.4-15.6s5-1.7,4.2,6.4s-20.5,14.3-31.3,14.3
		s-51.8,21.2-69.9,30.5s-50.2,21.3-56.8,17.4c-3.9-2.3-4.6-10.8,7-14.7s58.3-24,66.4-24S117.2,80.8,131.9,69.6z"/>
	<path class="st4" d="M166.3,47c0.6,1.7-7,5.8-16.9,9s-19.7,5-20.3,3.3s8.3-6.4,18.2-9.6S165.7,45.2,166.3,47z"/>
	<line class="st4" x1="132.1" y1="68.9" x2="129.6" y2="60.7"/>
	<line class="st4" x1="169.4" y1="56.7" x2="166.8" y2="48.2"/>
	<path class="st4" d="M162.8,81.3c0,0-2.9,0.3-2.9-2.4c0-2.7,0-5.7,0-5.7l7-3.1h50.9c0,0,5.3-1.4,5.3,5.6s-5,5.6-5,5.6H162.8z"/>
	<path class="st4" d="M199.7,125.2h-17.1c-10.4,0-18.9-8.4-18.9-18.9V81.4h54.9v24.9C218.5,116.7,210.1,125.2,199.7,125.2z"/>
	<path class="st4" d="M163.4,92.8c2.3,0.3,2.7-1.8,4.6-2.1c2-0.2,2.7,1.7,4.2,2.4c1.8,0.9,4.5,0.1,6-1.1c2.2-1.7,3.3-2.2,6.2-1.1
		c2.1,0.8,3.7,2.5,5.9,3c2.8,0.7,3.1-1.3,5.1-2.5c1.8-1,4.9-0.5,6.5,0.5c2.5,1.6,3.4,2.6,6.3,1.1c2.7-1.4,3.1-2.8,6.2-1.3
		c1.2,0.6,1.3,1,2.2,1.8c0.5,0.4,1.8,0.8,2.1,1.5"/>
	<path class="st5" d="M192,119.9h-2.2c-10,0-18.1-8.1-18.1-18.1v-3.2h38.5v3.2C210.1,111.8,202,119.9,192,119.9z"/>
	<line class="st5" x1="218.7" y1="69.9" x2="218.7" y2="81.3"/>
	<line class="st5" x1="210.8" y1="70" x2="210.8" y2="81.3"/>
	<line class="st5" x1="203" y1="70.1" x2="203" y2="81.3"/>
	<line class="st5" x1="195.2" y1="69.9" x2="195.2" y2="81.3"/>
	<line class="st5" x1="187.3" y1="70" x2="187.3" y2="81.3"/>
	<line class="st5" x1="180" y1="70.1" x2="180" y2="81.4"/>
	<line class="st5" x1="171.9" y1="69.9" x2="171.9" y2="81.3"/>
	<line class="st5" x1="164" y1="71" x2="164" y2="81.3"/>
	<line class="st3" x1="147.5" y1="56.1" x2="152.6" y2="70.6"/>
	<line class="st3" x1="156.3" y1="54" x2="162.1" y2="67.8"/>
</g>
</svg>
