<?xml version="1.0" encoding="utf-8"?>
<!-- Generator: Adobe Illustrator 26.0.0, SVG Export Plug-In . SVG Version: 6.00 Build 0)  -->
<svg version="1.1" id="Capa_1" xmlns="http://www.w3.org/2000/svg" xmlns:xlink="http://www.w3.org/1999/xlink" x="0px" y="0px"
	 viewBox="0 0 230 210" style="enable-background:new 0 0 230 210;" xml:space="preserve">
<style type="text/css">
	.st0{fill:none;}
	.st1{enable-background:new    ;}
	.st2{fill:#43878D;}
	.st3{fill:none;stroke:#FFFFFF;stroke-width:4;stroke-miterlimit:10;}
	.st4{fill:none;stroke:#FFFFFF;stroke-width:3;stroke-miterlimit:10;}
	.st5{fill:none;stroke:#FFFFFF;stroke-miterlimit:10;}
	.st6{fill:none;stroke:#FFFFFF;stroke-width:2;stroke-linecap:round;stroke-miterlimit:10;stroke-dasharray:11.6969,11.6969;}
	.st7{fill:none;stroke:#FFFFFF;stroke-width:3.0001;stroke-miterlimit:10.0005;}
</style>
<rect x="-0.5" y="173" class="st0" width="230" height="37"/>
<g class="st1">
	<path class="st2" d="M37.6,196c-0.6,0-1.2-0.1-1.7-0.3s-0.9-0.5-1.3-0.9c-0.4-0.4-0.7-0.8-0.9-1.4s-0.3-1.1-0.3-1.7
		c0-0.6,0.1-1.2,0.3-1.7c0.2-0.5,0.5-1,0.9-1.4c0.4-0.4,0.8-0.7,1.3-0.9c0.5-0.2,1.1-0.3,1.7-0.3c0.4,0,0.8,0.1,1.2,0.2
		c0.4,0.1,0.7,0.3,1.1,0.5c0.3,0.2,0.6,0.5,0.8,0.8l-1,1.1c-0.3-0.3-0.6-0.6-1-0.7c-0.3-0.2-0.7-0.3-1.1-0.3c-0.4,0-0.7,0.1-1,0.2
		c-0.3,0.1-0.6,0.3-0.8,0.6s-0.4,0.5-0.6,0.9c-0.1,0.3-0.2,0.7-0.2,1.1c0,0.4,0.1,0.8,0.2,1.2s0.3,0.6,0.6,0.9
		c0.2,0.2,0.5,0.4,0.9,0.6s0.7,0.2,1.1,0.2c0.3,0,0.5,0,0.8-0.1c0.2-0.1,0.5-0.2,0.7-0.3c0.2-0.1,0.4-0.3,0.6-0.5l0.8,1.2
		c-0.2,0.2-0.4,0.4-0.8,0.6c-0.3,0.2-0.7,0.3-1.1,0.4C38.4,196,38,196,37.6,196z"/>
	<path class="st2" d="M44.9,196c-0.6,0-1.2-0.1-1.7-0.4s-0.9-0.7-1.2-1.2c-0.3-0.5-0.4-1.1-0.4-1.7s0.1-1.2,0.4-1.7
		c0.3-0.5,0.7-0.9,1.2-1.2c0.5-0.3,1.1-0.4,1.7-0.4c0.6,0,1.2,0.1,1.7,0.4c0.5,0.3,0.9,0.7,1.2,1.2c0.3,0.5,0.4,1.1,0.4,1.7
		s-0.1,1.2-0.4,1.7c-0.3,0.5-0.7,0.9-1.2,1.2S45.5,196,44.9,196z M44.9,194.7c0.3,0,0.7-0.1,0.9-0.3c0.3-0.2,0.5-0.4,0.6-0.7
		c0.2-0.3,0.2-0.6,0.2-1c0-0.4-0.1-0.7-0.2-1c-0.2-0.3-0.4-0.5-0.6-0.7c-0.3-0.2-0.6-0.3-0.9-0.3c-0.3,0-0.7,0.1-0.9,0.3
		s-0.5,0.4-0.6,0.7c-0.2,0.3-0.2,0.6-0.2,1s0.1,0.7,0.2,1c0.2,0.3,0.4,0.5,0.6,0.7C44.2,194.6,44.5,194.7,44.9,194.7z"/>
	<path class="st2" d="M49.5,195.9v-6.3h1.4l0,1.3l-0.2,0.1c0.1-0.2,0.2-0.4,0.3-0.6c0.1-0.2,0.3-0.3,0.5-0.5
		c0.2-0.1,0.4-0.2,0.6-0.3c0.2-0.1,0.5-0.1,0.7-0.1c0.3,0,0.6,0.1,0.9,0.2c0.3,0.1,0.5,0.3,0.7,0.5c0.2,0.2,0.3,0.5,0.4,0.9l-0.2,0
		l0.1-0.2c0.1-0.2,0.2-0.4,0.4-0.5c0.2-0.2,0.3-0.3,0.5-0.4c0.2-0.1,0.4-0.2,0.6-0.3c0.2-0.1,0.4-0.1,0.6-0.1c0.5,0,0.9,0.1,1.2,0.3
		c0.3,0.2,0.6,0.5,0.7,0.9c0.2,0.4,0.2,0.9,0.2,1.5v3.8h-1.5v-3.7c0-0.5-0.1-0.8-0.3-1.1c-0.2-0.2-0.5-0.3-0.9-0.3
		c-0.2,0-0.4,0-0.6,0.1c-0.2,0.1-0.3,0.2-0.5,0.3s-0.2,0.3-0.3,0.4c-0.1,0.2-0.1,0.3-0.1,0.5v3.8h-1.5v-3.7c0-0.5-0.1-0.8-0.3-1
		c-0.2-0.2-0.5-0.4-0.8-0.4c-0.2,0-0.4,0-0.6,0.1c-0.2,0.1-0.3,0.2-0.5,0.3s-0.2,0.3-0.3,0.4c-0.1,0.2-0.1,0.3-0.1,0.5v3.8H49.5z"/>
	<path class="st2" d="M60.7,198.6v-9h1.4l0,1.4l-0.3-0.1c0-0.2,0.2-0.5,0.4-0.7s0.5-0.4,0.8-0.5c0.3-0.1,0.7-0.2,1-0.2
		c0.6,0,1.1,0.1,1.5,0.4s0.8,0.7,1,1.2c0.3,0.5,0.4,1.1,0.4,1.7s-0.1,1.2-0.4,1.7c-0.2,0.5-0.6,0.9-1,1.2c-0.4,0.3-0.9,0.4-1.5,0.4
		c-0.4,0-0.7-0.1-1.1-0.2c-0.3-0.1-0.6-0.3-0.9-0.6s-0.4-0.5-0.4-0.7l0.4-0.2v4.2H60.7z M63.9,194.7c0.3,0,0.6-0.1,0.9-0.3
		s0.5-0.4,0.6-0.7c0.2-0.3,0.2-0.6,0.2-1s-0.1-0.7-0.2-1s-0.4-0.5-0.6-0.7c-0.3-0.2-0.6-0.3-0.9-0.3c-0.4,0-0.7,0.1-0.9,0.3
		c-0.3,0.2-0.5,0.4-0.6,0.7c-0.2,0.3-0.2,0.6-0.2,1s0.1,0.7,0.2,1c0.2,0.3,0.4,0.5,0.6,0.7C63.2,194.6,63.5,194.7,63.9,194.7z"/>
	<path class="st2" d="M68.4,195.9v-6.3h1.4l0,2l-0.2-0.5c0.1-0.3,0.2-0.6,0.5-0.9c0.2-0.3,0.5-0.5,0.8-0.6c0.3-0.1,0.6-0.2,0.9-0.2
		c0.1,0,0.3,0,0.4,0c0.1,0,0.2,0.1,0.3,0.1l-0.4,1.6c-0.1,0-0.2-0.1-0.3-0.1s-0.2,0-0.4,0c-0.2,0-0.4,0-0.6,0.1
		c-0.2,0.1-0.3,0.2-0.5,0.3c-0.1,0.1-0.2,0.3-0.3,0.5c-0.1,0.2-0.1,0.4-0.1,0.6v3.4H68.4z"/>
	<path class="st2" d="M76.1,196c-0.7,0-1.2-0.1-1.8-0.4c-0.5-0.3-0.9-0.7-1.2-1.1c-0.3-0.5-0.4-1-0.4-1.7c0-0.5,0.1-0.9,0.2-1.4
		s0.4-0.8,0.7-1.1c0.3-0.3,0.6-0.5,1-0.7s0.8-0.2,1.3-0.2c0.4,0,0.8,0.1,1.2,0.2c0.4,0.2,0.7,0.4,0.9,0.7c0.3,0.3,0.5,0.6,0.6,1
		c0.1,0.4,0.2,0.8,0.2,1.2l0,0.5h-5.1l-0.3-1h4.2l-0.2,0.2V192c0-0.2-0.1-0.5-0.2-0.6c-0.1-0.2-0.3-0.3-0.5-0.4s-0.4-0.2-0.7-0.2
		c-0.4,0-0.7,0.1-1,0.2c-0.3,0.1-0.5,0.4-0.6,0.7c-0.1,0.3-0.2,0.6-0.2,1.1c0,0.4,0.1,0.8,0.3,1.1c0.2,0.3,0.4,0.5,0.7,0.7
		c0.3,0.2,0.7,0.3,1.1,0.3c0.3,0,0.6,0,0.8-0.1s0.5-0.3,0.8-0.5l0.7,1c-0.2,0.2-0.5,0.4-0.7,0.5c-0.3,0.1-0.6,0.2-0.9,0.3
		C76.7,196,76.4,196,76.1,196z"/>
	<path class="st2" d="M82.3,196c-0.6,0-1.1-0.1-1.5-0.3s-0.8-0.5-1.1-0.8l0.9-0.8c0.2,0.3,0.5,0.5,0.8,0.6s0.6,0.2,0.9,0.2
		c0.1,0,0.3,0,0.4,0c0.1,0,0.2-0.1,0.3-0.1s0.1-0.1,0.2-0.2c0-0.1,0.1-0.2,0.1-0.3c0-0.2-0.1-0.3-0.2-0.5c-0.1,0-0.2-0.1-0.4-0.2
		c-0.2-0.1-0.4-0.1-0.7-0.2c-0.4-0.1-0.8-0.2-1.1-0.4c-0.3-0.1-0.5-0.3-0.7-0.5c-0.1-0.2-0.2-0.3-0.3-0.5c-0.1-0.2-0.1-0.4-0.1-0.6
		c0-0.4,0.1-0.7,0.3-1s0.5-0.5,0.8-0.7c0.4-0.2,0.7-0.2,1.2-0.2c0.3,0,0.6,0,0.9,0.1c0.3,0.1,0.6,0.2,0.8,0.3
		c0.3,0.1,0.5,0.3,0.7,0.5l-0.8,0.9c-0.1-0.1-0.3-0.3-0.5-0.4c-0.2-0.1-0.4-0.2-0.5-0.3c-0.2-0.1-0.4-0.1-0.5-0.1
		c-0.2,0-0.3,0-0.4,0c-0.1,0-0.2,0.1-0.3,0.1c-0.1,0.1-0.1,0.1-0.2,0.2c0,0.1-0.1,0.2-0.1,0.3c0,0.1,0,0.2,0.1,0.3
		c0,0.1,0.1,0.2,0.2,0.2s0.2,0.1,0.4,0.2c0.2,0.1,0.4,0.1,0.7,0.2c0.4,0.1,0.7,0.2,1,0.3s0.5,0.3,0.6,0.4c0.2,0.1,0.3,0.3,0.3,0.5
		c0.1,0.2,0.1,0.4,0.1,0.6c0,0.4-0.1,0.7-0.3,1c-0.2,0.3-0.5,0.5-0.9,0.7C83.2,196,82.8,196,82.3,196z"/>
	<path class="st2" d="M87.8,196c-0.4,0-0.8-0.1-1.1-0.2s-0.6-0.4-0.8-0.7s-0.3-0.6-0.3-1c0-0.3,0.1-0.6,0.2-0.9
		c0.1-0.3,0.3-0.5,0.5-0.6s0.5-0.3,0.9-0.4s0.8-0.1,1.2-0.1h1.8l-0.1,1.1h-1.8c-0.2,0-0.4,0-0.6,0.1c-0.2,0-0.3,0.1-0.4,0.2
		c-0.1,0.1-0.2,0.2-0.3,0.3c-0.1,0.1-0.1,0.2-0.1,0.4c0,0.2,0,0.3,0.1,0.4c0.1,0.1,0.2,0.2,0.3,0.3c0.1,0.1,0.3,0.1,0.5,0.1
		c0.3,0,0.5,0,0.8-0.1c0.2-0.1,0.4-0.2,0.6-0.4s0.3-0.3,0.4-0.5l0.3,0.8c-0.2,0.3-0.4,0.5-0.6,0.7c-0.2,0.2-0.5,0.4-0.8,0.5
		C88.4,196,88.1,196,87.8,196z M89.6,195.9v-4c0-0.3-0.1-0.6-0.3-0.8c-0.2-0.2-0.5-0.3-0.9-0.3c-0.3,0-0.6,0.1-0.9,0.2
		s-0.5,0.3-0.8,0.6l-0.9-0.9c0.4-0.4,0.8-0.7,1.2-0.9s0.9-0.3,1.5-0.3c0.5,0,0.9,0.1,1.3,0.2c0.4,0.2,0.6,0.4,0.8,0.7
		c0.2,0.3,0.3,0.7,0.3,1.2v4.3H89.6z"/>
	<path class="st2" d="M97,198.7l1.3-3.1l0,1l-3.1-7H97l1.8,4.2c0.1,0.1,0.1,0.2,0.2,0.4s0.1,0.3,0.1,0.5l-0.3,0.1
		c0.1-0.2,0.1-0.3,0.2-0.5s0.1-0.4,0.2-0.5l1.5-4.2h1.7l-2.6,6.3l-1.1,2.8H97z"/>
	<path class="st2" d="M109.4,196c-0.6,0-1.1-0.1-1.6-0.4c-0.5-0.3-0.8-0.7-1.1-1.2s-0.4-1.1-0.4-1.7s0.1-1.2,0.4-1.7
		s0.6-0.9,1.1-1.2c0.5-0.3,1-0.4,1.6-0.4c0.6,0,1.1,0.1,1.5,0.3c0.5,0.2,0.8,0.5,1.1,0.9l-0.8,1c-0.1-0.2-0.3-0.3-0.5-0.5
		c-0.2-0.1-0.4-0.2-0.6-0.3c-0.2-0.1-0.4-0.1-0.6-0.1c-0.4,0-0.7,0.1-1,0.3s-0.5,0.4-0.7,0.7c-0.2,0.3-0.2,0.6-0.2,1s0.1,0.7,0.2,1
		c0.2,0.3,0.4,0.5,0.7,0.7c0.3,0.2,0.6,0.3,0.9,0.3c0.2,0,0.4,0,0.6-0.1c0.2-0.1,0.4-0.2,0.6-0.3c0.2-0.1,0.3-0.3,0.5-0.5l0.8,1
		c-0.3,0.4-0.6,0.6-1.1,0.9S109.9,196,109.4,196z"/>
	<path class="st2" d="M116,196c-0.6,0-1.2-0.1-1.7-0.4s-0.9-0.7-1.2-1.2c-0.3-0.5-0.4-1.1-0.4-1.7s0.1-1.2,0.4-1.7
		c0.3-0.5,0.7-0.9,1.2-1.2c0.5-0.3,1.1-0.4,1.7-0.4c0.6,0,1.2,0.1,1.7,0.4c0.5,0.3,0.9,0.7,1.2,1.2c0.3,0.5,0.4,1.1,0.4,1.7
		s-0.1,1.2-0.4,1.7s-0.7,0.9-1.2,1.2S116.7,196,116,196z M116,194.7c0.3,0,0.7-0.1,0.9-0.3c0.3-0.2,0.5-0.4,0.6-0.7
		c0.2-0.3,0.2-0.6,0.2-1c0-0.4-0.1-0.7-0.2-1c-0.2-0.3-0.4-0.5-0.6-0.7c-0.3-0.2-0.6-0.3-0.9-0.3c-0.3,0-0.7,0.1-0.9,0.3
		s-0.5,0.4-0.6,0.7c-0.2,0.3-0.2,0.6-0.2,1s0.1,0.7,0.2,1c0.2,0.3,0.4,0.5,0.6,0.7C115.4,194.6,115.7,194.7,116,194.7z"/>
	<path class="st2" d="M120.6,198.6v-9h1.4l0,1.4l-0.3-0.1c0-0.2,0.2-0.5,0.4-0.7c0.2-0.2,0.5-0.4,0.8-0.5c0.3-0.1,0.7-0.2,1-0.2
		c0.6,0,1.1,0.1,1.5,0.4c0.4,0.3,0.8,0.7,1,1.2c0.3,0.5,0.4,1.1,0.4,1.7s-0.1,1.2-0.4,1.7c-0.2,0.5-0.6,0.9-1,1.2
		c-0.4,0.3-0.9,0.4-1.5,0.4c-0.4,0-0.7-0.1-1.1-0.2c-0.3-0.1-0.6-0.3-0.9-0.6c-0.2-0.2-0.4-0.5-0.4-0.7l0.4-0.2v4.2H120.6z
		 M123.8,194.7c0.3,0,0.6-0.1,0.9-0.3c0.3-0.2,0.5-0.4,0.6-0.7c0.2-0.3,0.2-0.6,0.2-1s-0.1-0.7-0.2-1c-0.1-0.3-0.4-0.5-0.6-0.7
		c-0.3-0.2-0.6-0.3-0.9-0.3c-0.4,0-0.7,0.1-0.9,0.3c-0.3,0.2-0.5,0.4-0.6,0.7c-0.2,0.3-0.2,0.6-0.2,1s0.1,0.7,0.2,1
		c0.2,0.3,0.4,0.5,0.6,0.7C123.2,194.6,123.5,194.7,123.8,194.7z"/>
	<path class="st2" d="M130.1,196c-0.4,0-0.8-0.1-1.1-0.2c-0.3-0.2-0.6-0.4-0.8-0.7c-0.2-0.3-0.3-0.6-0.3-1c0-0.3,0.1-0.6,0.2-0.9
		s0.3-0.5,0.5-0.6c0.2-0.2,0.5-0.3,0.9-0.4c0.4-0.1,0.8-0.1,1.2-0.1h1.8l-0.1,1.1h-1.8c-0.2,0-0.4,0-0.6,0.1c-0.2,0-0.3,0.1-0.4,0.2
		c-0.1,0.1-0.2,0.2-0.3,0.3c-0.1,0.1-0.1,0.2-0.1,0.4c0,0.2,0,0.3,0.1,0.4s0.2,0.2,0.3,0.3c0.1,0.1,0.3,0.1,0.5,0.1
		c0.3,0,0.5,0,0.8-0.1c0.2-0.1,0.4-0.2,0.6-0.4c0.2-0.2,0.3-0.3,0.4-0.5l0.3,0.8c-0.2,0.3-0.4,0.5-0.6,0.7s-0.5,0.4-0.8,0.5
		C130.7,196,130.4,196,130.1,196z M131.9,195.9v-4c0-0.3-0.1-0.6-0.3-0.8c-0.2-0.2-0.5-0.3-0.9-0.3c-0.3,0-0.6,0.1-0.9,0.2
		c-0.3,0.1-0.5,0.3-0.8,0.6l-0.9-0.9c0.4-0.4,0.8-0.7,1.2-0.9s0.9-0.3,1.5-0.3c0.5,0,0.9,0.1,1.3,0.2c0.4,0.2,0.6,0.4,0.8,0.7
		c0.2,0.3,0.3,0.7,0.3,1.2v4.3H131.9z"/>
	<path class="st2" d="M138.4,195.9v-6.3h1.4l0,1.3l-0.2,0.1c0.1-0.2,0.2-0.4,0.3-0.6c0.1-0.2,0.3-0.3,0.5-0.5
		c0.2-0.1,0.4-0.2,0.6-0.3c0.2-0.1,0.5-0.1,0.7-0.1c0.3,0,0.6,0.1,0.9,0.2c0.3,0.1,0.5,0.3,0.7,0.5c0.2,0.2,0.3,0.5,0.4,0.9l-0.2,0
		l0.1-0.2c0.1-0.2,0.2-0.4,0.4-0.5s0.3-0.3,0.5-0.4s0.4-0.2,0.6-0.3s0.4-0.1,0.6-0.1c0.5,0,0.9,0.1,1.2,0.3c0.3,0.2,0.6,0.5,0.7,0.9
		c0.2,0.4,0.2,0.9,0.2,1.5v3.8h-1.5v-3.7c0-0.5-0.1-0.8-0.3-1.1c-0.2-0.2-0.5-0.3-0.9-0.3c-0.2,0-0.4,0-0.6,0.1
		c-0.2,0.1-0.3,0.2-0.5,0.3s-0.2,0.3-0.3,0.4c-0.1,0.2-0.1,0.3-0.1,0.5v3.8h-1.5v-3.7c0-0.5-0.1-0.8-0.3-1c-0.2-0.2-0.5-0.4-0.8-0.4
		c-0.2,0-0.4,0-0.6,0.1c-0.2,0.1-0.3,0.2-0.5,0.3s-0.2,0.3-0.3,0.4c-0.1,0.2-0.1,0.3-0.1,0.5v3.8H138.4z"/>
	<path class="st2" d="M152.6,196c-0.7,0-1.2-0.1-1.8-0.4s-0.9-0.7-1.2-1.1c-0.3-0.5-0.4-1-0.4-1.7c0-0.5,0.1-0.9,0.2-1.4
		s0.4-0.8,0.7-1.1c0.3-0.3,0.6-0.5,1-0.7c0.4-0.2,0.8-0.2,1.3-0.2c0.4,0,0.8,0.1,1.2,0.2c0.4,0.2,0.7,0.4,0.9,0.7
		c0.3,0.3,0.5,0.6,0.6,1c0.1,0.4,0.2,0.8,0.2,1.2l0,0.5h-5.1l-0.3-1h4.2l-0.2,0.2V192c0-0.2-0.1-0.5-0.2-0.6
		c-0.1-0.2-0.3-0.3-0.5-0.4s-0.4-0.2-0.7-0.2c-0.4,0-0.7,0.1-1,0.2c-0.3,0.1-0.5,0.4-0.6,0.7s-0.2,0.6-0.2,1.1
		c0,0.4,0.1,0.8,0.3,1.1c0.2,0.3,0.4,0.5,0.7,0.7s0.7,0.3,1.1,0.3c0.3,0,0.6,0,0.8-0.1s0.5-0.3,0.8-0.5l0.7,1
		c-0.2,0.2-0.5,0.4-0.7,0.5c-0.3,0.1-0.6,0.2-0.9,0.3C153.2,196,152.9,196,152.6,196z"/>
	<path class="st2" d="M156.6,195.9v-6.3h1.4l0,1.3l-0.3,0.1c0.1-0.3,0.2-0.5,0.5-0.8c0.2-0.2,0.5-0.4,0.8-0.6c0.3-0.1,0.7-0.2,1-0.2
		c0.5,0,0.9,0.1,1.2,0.3s0.6,0.5,0.7,0.9c0.2,0.4,0.2,0.9,0.2,1.4v3.9h-1.5v-3.8c0-0.3,0-0.6-0.1-0.8c-0.1-0.2-0.2-0.4-0.4-0.5
		c-0.2-0.1-0.4-0.1-0.7-0.1c-0.2,0-0.4,0-0.6,0.1c-0.2,0.1-0.3,0.2-0.5,0.3s-0.2,0.3-0.3,0.4s-0.1,0.3-0.1,0.5v3.8h-0.7
		c-0.1,0-0.3,0-0.4,0S156.7,195.9,156.6,195.9z"/>
	<path class="st2" d="M166,196c-0.6,0-1-0.1-1.5-0.3c-0.4-0.2-0.8-0.5-1.1-0.8l0.9-0.8c0.2,0.3,0.5,0.5,0.8,0.6
		c0.3,0.1,0.6,0.2,0.9,0.2c0.1,0,0.3,0,0.4,0c0.1,0,0.2-0.1,0.3-0.1c0.1-0.1,0.1-0.1,0.2-0.2c0-0.1,0.1-0.2,0.1-0.3
		c0-0.2-0.1-0.3-0.2-0.5c-0.1,0-0.2-0.1-0.4-0.2c-0.2-0.1-0.4-0.1-0.7-0.2c-0.4-0.1-0.8-0.2-1.1-0.4c-0.3-0.1-0.5-0.3-0.7-0.5
		c-0.1-0.2-0.2-0.3-0.3-0.5c-0.1-0.2-0.1-0.4-0.1-0.6c0-0.4,0.1-0.7,0.3-1s0.5-0.5,0.8-0.7c0.4-0.2,0.7-0.2,1.2-0.2
		c0.3,0,0.6,0,0.9,0.1c0.3,0.1,0.6,0.2,0.8,0.3c0.3,0.1,0.5,0.3,0.7,0.5l-0.8,0.9c-0.1-0.1-0.3-0.3-0.5-0.4
		c-0.2-0.1-0.4-0.2-0.5-0.3c-0.2-0.1-0.4-0.1-0.5-0.1c-0.2,0-0.3,0-0.4,0c-0.1,0-0.2,0.1-0.3,0.1c-0.1,0.1-0.1,0.1-0.2,0.2
		c0,0.1-0.1,0.2-0.1,0.3c0,0.1,0,0.2,0.1,0.3s0.1,0.2,0.2,0.2s0.2,0.1,0.4,0.2c0.2,0.1,0.4,0.1,0.7,0.2c0.4,0.1,0.7,0.2,1,0.3
		s0.5,0.3,0.6,0.4c0.2,0.1,0.3,0.3,0.3,0.5c0.1,0.2,0.1,0.4,0.1,0.6c0,0.4-0.1,0.7-0.3,1s-0.5,0.5-0.9,0.7
		C166.9,196,166.5,196,166,196z"/>
	<path class="st2" d="M169.2,191v-1.4h4.1v1.4H169.2z M170.4,195.9V188h1.5v7.9H170.4z"/>
	<path class="st2" d="M174.4,195.9v-6.3h1.4l0,2l-0.2-0.5c0.1-0.3,0.2-0.6,0.5-0.9s0.5-0.5,0.8-0.6c0.3-0.1,0.6-0.2,0.9-0.2
		c0.1,0,0.3,0,0.4,0c0.1,0,0.2,0.1,0.3,0.1l-0.4,1.6c-0.1,0-0.2-0.1-0.3-0.1s-0.2,0-0.4,0c-0.2,0-0.4,0-0.6,0.1
		c-0.2,0.1-0.3,0.2-0.5,0.3c-0.1,0.1-0.2,0.3-0.3,0.5c-0.1,0.2-0.1,0.4-0.1,0.6v3.4H174.4z"/>
	<path class="st2" d="M181.7,196c-0.5,0-0.8-0.1-1.2-0.3s-0.6-0.5-0.8-0.9c-0.2-0.4-0.3-0.8-0.3-1.4v-3.9h1.5v3.6
		c0,0.5,0.1,0.9,0.4,1.2c0.2,0.3,0.6,0.4,1,0.4c0.2,0,0.4,0,0.6-0.1c0.2-0.1,0.3-0.2,0.5-0.3s0.2-0.3,0.3-0.5
		c0.1-0.2,0.1-0.4,0.1-0.6v-3.8h1.5v6.3h-1.4l0-1.3l0.3-0.1c-0.1,0.3-0.3,0.6-0.5,0.8c-0.2,0.2-0.5,0.4-0.8,0.6
		C182.3,196,182,196,181.7,196z"/>
	<path class="st2" d="M188.7,196c-0.4,0-0.8-0.1-1.1-0.2s-0.6-0.4-0.8-0.7c-0.2-0.3-0.3-0.6-0.3-1c0-0.3,0.1-0.6,0.2-0.9
		s0.3-0.5,0.5-0.6s0.5-0.3,0.9-0.4c0.4-0.1,0.8-0.1,1.2-0.1h1.8l-0.1,1.1h-1.8c-0.2,0-0.4,0-0.6,0.1c-0.2,0-0.3,0.1-0.4,0.2
		s-0.2,0.2-0.3,0.3c-0.1,0.1-0.1,0.2-0.1,0.4c0,0.2,0,0.3,0.1,0.4s0.2,0.2,0.3,0.3c0.1,0.1,0.3,0.1,0.5,0.1c0.3,0,0.5,0,0.8-0.1
		c0.2-0.1,0.4-0.2,0.6-0.4c0.2-0.2,0.3-0.3,0.4-0.5l0.3,0.8c-0.2,0.3-0.4,0.5-0.6,0.7s-0.5,0.4-0.8,0.5C189.3,196,189,196,188.7,196
		z M190.5,195.9v-4c0-0.3-0.1-0.6-0.3-0.8c-0.2-0.2-0.5-0.3-0.9-0.3c-0.3,0-0.6,0.1-0.9,0.2c-0.3,0.1-0.5,0.3-0.8,0.6l-0.9-0.9
		c0.4-0.4,0.8-0.7,1.2-0.9s0.9-0.3,1.5-0.3c0.5,0,0.9,0.1,1.3,0.2c0.4,0.2,0.6,0.4,0.8,0.7s0.3,0.7,0.3,1.2v4.3H190.5z"/>
	<path class="st2" d="M193.4,195.9V187h1.5v8.9H193.4z"/>
</g>
<image style="overflow:visible;enable-background:new    ;" width="249" height="187" xlink:href="fondo tips.png"  transform="matrix(0.9251 0 0 0.9251 0 0)">
</image>
<g>
	<path class="st3" d="M72.6,32.8c2.4,3.9,10.6,11.7,15.1,11.1c4.6-0.6,20.7-7.2,35.7-0.3s-6.3,37.4,0,47.2s35.7,41.5,29.9,57
		s-27.4,23.9-43.8,7.5c-18.4-18.4-27.6-38-36.9-38s-35.1,4.6-36.9-6.9s9.8-24.8,3.5-37.4c-2.3-4.6-31.3-39-10.7-56.1
		c9.6-7.9,21.6-4.5,30.7,2.3c4.7,3.5,8.9,7.8,12.4,12.6C72.1,32.1,72.4,32.4,72.6,32.8z"/>
	<circle class="st3" cx="115.2" cy="54.5" r="5.6"/>
	<circle class="st4" cx="47" cy="106.9" r="5.6"/>
	<circle class="st5" cx="47" cy="106.9" r="2.9"/>
	<g>
		<path class="st6" d="M115.4,151.2L30.5,47c-5.3-6.5-4.3-16.2,2.2-21.5l3.8-3.1c6.5-5.3,16.2-4.3,21.5,2.2l84.9,104.2
			c5.3,6.5,4.3,16.2-2.2,21.5l-3.8,3.1C130.3,158.6,120.7,157.7,115.4,151.2C115.4,151.2,120.7,157.7,115.4,151.2z"/>
	</g>
	<path class="st4" d="M75.7,85.1c1.3-1.6,1.2-4.4,0-6c-7.5-2.3-4.8-10.9,2.5-7.8c3.1,1.3,3.9,5.8,6.9,7.5c2.4,1.3,8.5-0.9,10.1,1.3
		c1.2,1.6-0.8,3.1-0.9,4.5c-0.2,2.7,0.7,2,2.5,3c4,2.1,3.2,4.8,4.4,8.6c0.5,1.5,3,2.7,1.6,4.6c-1.9,2.5-2.9-0.5-4-1.6
		c-3-2.8-7.1-1.1-11-1c-2.8,0-4,0.4-5-2.4c-0.8-2.1-0.3-3.5-2.3-4.8c-1.6-1-2.6-0.4-3.7-2.3C75.6,87.1,76.1,85.5,75.7,85.1z"/>
	
		<ellipse transform="matrix(0.4145 -0.9101 0.9101 0.4145 54.4973 207.3826)" class="st7" cx="188.4" cy="61.3" rx="9.1" ry="25.2"/>
	<path class="st4" d="M165.2,51.5c0,0-7.9,0.9-3.7,9.8s23.6,20.4,39.2,20.4s10.7-10,10.7-10"/>
	<path class="st4" d="M156,91.7c0,0,3.2-2.4,7.4-0.8s5.9,7.3,9.8,3.1c3.8-4.2,4.4-1.2,8.1-1.1c3.6,0.1-0.2-2.7,4.9-1.2
		c5.1,1.5,4.3,8,7.4,3.8c3.1-4.2,8.4-4.9,11.9-3.8c-4.2,4.3-10.7,10.5-16.1,12.9s-16.6,4.9-17.4,5.5s-8.6,13.4-10.4,13.7
		c-1.8,0.3-4.6-0.3-4.3-2.6c0.3-2.3,3.8-7.8,4.4-10.9c0.6-3.1,1.5-6.1-0.7-8.8C158.6,98.7,156,91.7,156,91.7z"/>
	<path class="st4" d="M160.3,57.6c0,0-7,4.7-6.2,23.2s9.8,18.9,7.6,28.4s-6.6,11.7-2.6,14.5s8.9-11.8,12.7-13.7s11.5-0.9,22.2-8.4
		s16-13.8,16-22.1"/>
	<path class="st4" d="M156,91.7"/>
</g>
</svg>
