<svg width="50" height="50" viewBox="0 0 50 50" fill="none" xmlns="http://www.w3.org/2000/svg">
<path d="M25 6.00027e-06C11.1929 7.20732e-06 2.33103e-05 11.1929 2.45173e-05 25C2.57244e-05 38.8071 11.1929 50 25 50C38.8071 50 50 38.8071 50 25C50 11.1929 38.8071 4.79321e-06 25 6.00027e-06Z" fill="#81B214"/>
<path d="M26.3456 41.2098C26.0549 41.0307 25.7857 40.8193 25.5429 40.5797L20.475 35.5409L13.9618 29.0672L10.0311 25.162L9.9049 25.0363L25.6993 9.3527C27.6774 7.38781 31.1484 7.54716 32.7234 9.94363C33.2779 10.7801 33.5316 11.779 33.4433 12.7774C33.3549 13.7759 32.9298 14.7152 32.2371 15.4422C31.4208 16.2808 30.5862 17.1057 29.7516 17.9252C27.6186 20.0412 25.4765 22.1497 23.3253 24.2505C23.2832 24.2915 22.5199 25.0436 22.5181 25.0418L31.8422 34.2544C33.0087 35.4071 33.6129 37.2099 33.3268 38.8279C33.1492 39.7682 32.6237 40.6079 31.8541 41.1806C31.1028 41.7246 30.195 42.0121 29.2662 42.0001C28.2377 42.0132 27.226 41.7394 26.3456 41.2098Z" fill="#D3DBDC"/>
</svg>
