<svg id="Capa_1" data-name="Capa 1" xmlns="http://www.w3.org/2000/svg" viewBox="0 0 130 130"><defs><style>.cls-1{fill:#44878d;}.cls-2{fill:#f6fcfe;}.cls-3,.cls-4{fill:none;stroke-width:2px;}.cls-3{stroke:#44878d;}.cls-4{stroke:#80b241;}</style></defs><path class="cls-1" d="M278.25,454.3a65,65,0,1,0-65-65A65,65,0,0,0,278.25,454.3Z" transform="translate(-213.25 -324.3)"/><path class="cls-2" d="M278.25,451.32a62,62,0,1,0-62-62A62,62,0,0,0,278.25,451.32Z" transform="translate(-213.25 -324.3)"/><path class="cls-3" d="M254.43,413.48s-7.81-14.67,41-13.27" transform="translate(-213.25 -324.3)"/><path class="cls-3" d="M279.18,390.82A16.23,16.23,0,1,0,263,374.59,16.23,16.23,0,0,0,279.18,390.82Z" transform="translate(-213.25 -324.3)"/><path class="cls-4" d="M303.28,404.44v15.61" transform="translate(-213.25 -324.3)"/><path class="cls-4" d="M311.09,412.25H295.48" transform="translate(-213.25 -324.3)"/></svg>