<?xml version="1.0" encoding="utf-8"?>
<!-- Generator: Adobe Illustrator 26.0.0, SVG Export Plug-In . SVG Version: 6.00 Build 0)  -->
<svg version="1.1" id="Capa_1" xmlns="http://www.w3.org/2000/svg" xmlns:xlink="http://www.w3.org/1999/xlink" x="0px" y="0px"
	 viewBox="0 0 230 210" style="enable-background:new 0 0 230 210;" xml:space="preserve">
<style type="text/css">
	.st0{fill:none;}
	.st1{enable-background:new    ;}
	.st2{fill:#43878D;}
	.st3{fill:none;stroke:#FFFFFF;stroke-width:3;stroke-miterlimit:10;}
	.st4{fill:none;stroke:#FFFFFF;stroke-miterlimit:10;}
	.st5{fill:none;stroke:#FFFFFF;stroke-width:2;stroke-linecap:round;stroke-linejoin:round;stroke-miterlimit:10;}
</style>
<rect y="172.4" class="st0" width="230" height="37"/>
<g class="st1">
	<path class="st2" d="M50.6,195.4c-0.3,0-0.5,0-0.8-0.1c-0.3-0.1-0.5-0.2-0.7-0.3s-0.4-0.3-0.6-0.5c-0.2-0.2-0.3-0.4-0.4-0.6l0.9-1
		c0.2,0.3,0.4,0.5,0.6,0.6c0.2,0.2,0.3,0.3,0.5,0.3s0.3,0.1,0.5,0.1c0.3,0,0.5-0.1,0.7-0.2c0.2-0.1,0.3-0.3,0.4-0.5s0.2-0.4,0.2-0.7
		v-4.3h-1.5v-1.4h4.4v1.4h-1.3v4.5c0,0.4-0.1,0.8-0.2,1.1c-0.1,0.3-0.3,0.6-0.6,0.8c-0.2,0.2-0.5,0.4-0.9,0.6
		C51.4,195.3,51,195.4,50.6,195.4z"/>
	<path class="st2" d="M57.4,195.4c-0.4,0-0.8-0.1-1.1-0.2s-0.6-0.4-0.8-0.7s-0.3-0.6-0.3-1c0-0.3,0.1-0.6,0.2-0.9
		c0.1-0.3,0.3-0.5,0.5-0.6s0.5-0.3,0.9-0.4s0.8-0.1,1.2-0.1h1.8l-0.1,1.1H58c-0.2,0-0.4,0-0.6,0.1c-0.2,0-0.3,0.1-0.4,0.2
		c-0.1,0.1-0.2,0.2-0.3,0.3c-0.1,0.1-0.1,0.2-0.1,0.4c0,0.2,0,0.3,0.1,0.4c0.1,0.1,0.2,0.2,0.3,0.3c0.1,0.1,0.3,0.1,0.5,0.1
		c0.3,0,0.5,0,0.8-0.1c0.2-0.1,0.4-0.2,0.6-0.4s0.3-0.3,0.4-0.5l0.3,0.8c-0.2,0.3-0.4,0.5-0.6,0.7c-0.2,0.2-0.5,0.4-0.8,0.5
		C58,195.4,57.7,195.4,57.4,195.4z M59.2,195.3v-4c0-0.3-0.1-0.6-0.3-0.8c-0.2-0.2-0.5-0.3-0.9-0.3c-0.3,0-0.6,0.1-0.9,0.2
		s-0.5,0.3-0.8,0.6l-0.9-0.9c0.4-0.4,0.8-0.7,1.2-0.9s0.9-0.3,1.5-0.3c0.5,0,0.9,0.1,1.3,0.2c0.4,0.2,0.6,0.4,0.8,0.7
		c0.2,0.3,0.3,0.7,0.3,1.2v4.3H59.2z"/>
	<path class="st2" d="M65.6,195.4c-0.3,0-0.6,0-0.8-0.1c-0.3-0.1-0.5-0.2-0.7-0.3c-0.2-0.1-0.4-0.3-0.5-0.5s-0.2-0.4-0.3-0.5
		l0.3-0.2l0,1.5h-1.4v-8.8h1.5v4l-0.3-0.1c0-0.2,0.1-0.4,0.3-0.5c0.1-0.2,0.3-0.3,0.5-0.5c0.2-0.1,0.4-0.3,0.7-0.3s0.5-0.1,0.8-0.1
		c0.6,0,1.1,0.1,1.5,0.4c0.4,0.3,0.8,0.7,1,1.2s0.4,1.1,0.4,1.7c0,0.6-0.1,1.2-0.4,1.7s-0.6,0.9-1,1.2S66.2,195.4,65.6,195.4z
		 M65.3,194.1c0.3,0,0.6-0.1,0.9-0.3c0.3-0.2,0.5-0.4,0.6-0.7c0.2-0.3,0.2-0.6,0.2-1c0-0.4-0.1-0.7-0.2-1c-0.1-0.3-0.4-0.5-0.6-0.7
		s-0.6-0.3-0.9-0.3c-0.4,0-0.7,0.1-0.9,0.3c-0.3,0.2-0.5,0.4-0.6,0.7c-0.2,0.3-0.2,0.6-0.2,1c0,0.4,0.1,0.7,0.2,1
		c0.2,0.3,0.4,0.5,0.6,0.7C64.6,194,65,194.1,65.3,194.1z"/>
	<path class="st2" d="M72.7,195.4c-0.6,0-1.2-0.1-1.7-0.4s-0.9-0.7-1.2-1.2c-0.3-0.5-0.4-1.1-0.4-1.7s0.1-1.2,0.4-1.7
		c0.3-0.5,0.7-0.9,1.2-1.2c0.5-0.3,1.1-0.4,1.7-0.4c0.6,0,1.2,0.1,1.7,0.4c0.5,0.3,0.9,0.7,1.2,1.2c0.3,0.5,0.4,1.1,0.4,1.7
		s-0.1,1.2-0.4,1.7c-0.3,0.5-0.7,0.9-1.2,1.2S73.3,195.4,72.7,195.4z M72.7,194.1c0.3,0,0.7-0.1,0.9-0.3c0.3-0.2,0.5-0.4,0.6-0.7
		c0.2-0.3,0.2-0.6,0.2-1c0-0.4-0.1-0.7-0.2-1c-0.2-0.3-0.4-0.5-0.6-0.7c-0.3-0.2-0.6-0.3-0.9-0.3c-0.3,0-0.7,0.1-0.9,0.3
		s-0.5,0.4-0.6,0.7c-0.2,0.3-0.2,0.6-0.2,1s0.1,0.7,0.2,1c0.2,0.3,0.4,0.5,0.6,0.7C72,194,72.3,194.1,72.7,194.1z"/>
	<path class="st2" d="M77.3,195.3V189h1.4l0,1.3l-0.3,0.1c0.1-0.3,0.2-0.5,0.5-0.8c0.2-0.2,0.5-0.4,0.8-0.6c0.3-0.1,0.7-0.2,1-0.2
		c0.5,0,0.9,0.1,1.2,0.3c0.3,0.2,0.6,0.5,0.7,0.9c0.2,0.4,0.2,0.9,0.2,1.4v3.9h-1.5v-3.8c0-0.3,0-0.6-0.1-0.8
		c-0.1-0.2-0.2-0.4-0.4-0.5c-0.2-0.1-0.4-0.1-0.7-0.1c-0.2,0-0.4,0-0.6,0.1c-0.2,0.1-0.3,0.2-0.5,0.3c-0.1,0.1-0.2,0.3-0.3,0.4
		s-0.1,0.3-0.1,0.5v3.8H78c-0.1,0-0.3,0-0.4,0S77.4,195.3,77.3,195.3z"/>
	<path class="st2" d="M89.1,198.1l1.3-3.1l0,1l-3.1-7H89l1.8,4.2c0.1,0.1,0.1,0.2,0.2,0.4s0.1,0.3,0.1,0.5l-0.3,0.1
		c0.1-0.2,0.1-0.3,0.2-0.5s0.1-0.4,0.2-0.5l1.5-4.2h1.7l-2.6,6.3l-1.1,2.8H89.1z"/>
	<path class="st2" d="M100.9,195.4c-0.6,0-1.1-0.1-1.5-0.3s-0.8-0.5-1.1-0.8l0.9-0.8c0.2,0.3,0.5,0.5,0.8,0.6s0.6,0.2,0.9,0.2
		c0.1,0,0.3,0,0.4,0c0.1,0,0.2-0.1,0.3-0.1s0.1-0.1,0.2-0.2c0-0.1,0.1-0.2,0.1-0.3c0-0.2-0.1-0.3-0.2-0.5c-0.1,0-0.2-0.1-0.4-0.2
		c-0.2-0.1-0.4-0.1-0.7-0.2c-0.4-0.1-0.8-0.2-1.1-0.4c-0.3-0.1-0.5-0.3-0.7-0.5c-0.1-0.2-0.2-0.3-0.3-0.5c-0.1-0.2-0.1-0.4-0.1-0.6
		c0-0.4,0.1-0.7,0.3-1s0.5-0.5,0.8-0.7c0.4-0.2,0.7-0.2,1.2-0.2c0.3,0,0.6,0,0.9,0.1c0.3,0.1,0.6,0.2,0.8,0.3
		c0.3,0.1,0.5,0.3,0.7,0.5l-0.8,0.9c-0.1-0.1-0.3-0.3-0.5-0.4c-0.2-0.1-0.4-0.2-0.5-0.3c-0.2-0.1-0.4-0.1-0.5-0.1
		c-0.2,0-0.3,0-0.4,0c-0.1,0-0.2,0.1-0.3,0.1c-0.1,0.1-0.1,0.1-0.2,0.2c0,0.1-0.1,0.2-0.1,0.3c0,0.1,0,0.2,0.1,0.3
		c0,0.1,0.1,0.2,0.2,0.2s0.2,0.1,0.4,0.2c0.2,0.1,0.4,0.1,0.7,0.2c0.4,0.1,0.7,0.2,1,0.3s0.5,0.3,0.6,0.4c0.2,0.1,0.3,0.3,0.3,0.5
		c0.1,0.2,0.1,0.4,0.1,0.6c0,0.4-0.1,0.7-0.3,1c-0.2,0.3-0.5,0.5-0.9,0.7C101.7,195.3,101.3,195.4,100.9,195.4z"/>
	<path class="st2" d="M104.5,195.3v-8.9h1.5v3.9l-0.3,0.1c0.1-0.3,0.2-0.5,0.5-0.8c0.2-0.2,0.5-0.4,0.8-0.6c0.3-0.1,0.7-0.2,1-0.2
		c0.5,0,0.9,0.1,1.2,0.3c0.3,0.2,0.6,0.5,0.7,0.9c0.2,0.4,0.2,0.9,0.2,1.4v3.9h-1.5v-3.8c0-0.3,0-0.6-0.1-0.8
		c-0.1-0.2-0.2-0.4-0.4-0.5c-0.2-0.1-0.4-0.1-0.7-0.1c-0.2,0-0.4,0-0.6,0.1c-0.2,0.1-0.3,0.2-0.5,0.3c-0.1,0.1-0.2,0.3-0.3,0.4
		s-0.1,0.3-0.1,0.5v3.8h-0.7c-0.1,0-0.3,0-0.4,0S104.7,195.3,104.5,195.3z"/>
	<path class="st2" d="M113.7,195.4c-0.4,0-0.8-0.1-1.1-0.2s-0.6-0.4-0.8-0.7s-0.3-0.6-0.3-1c0-0.3,0.1-0.6,0.2-0.9
		c0.1-0.3,0.3-0.5,0.5-0.6s0.5-0.3,0.9-0.4s0.8-0.1,1.2-0.1h1.8l-0.1,1.1h-1.8c-0.2,0-0.4,0-0.6,0.1c-0.2,0-0.3,0.1-0.4,0.2
		c-0.1,0.1-0.2,0.2-0.3,0.3c-0.1,0.1-0.1,0.2-0.1,0.4c0,0.2,0,0.3,0.1,0.4c0.1,0.1,0.2,0.2,0.3,0.3c0.1,0.1,0.3,0.1,0.5,0.1
		c0.3,0,0.5,0,0.8-0.1c0.2-0.1,0.4-0.2,0.6-0.4s0.3-0.3,0.4-0.5l0.3,0.8c-0.2,0.3-0.4,0.5-0.6,0.7c-0.2,0.2-0.5,0.4-0.8,0.5
		C114.3,195.4,114,195.4,113.7,195.4z M115.5,195.3v-4c0-0.3-0.1-0.6-0.3-0.8c-0.2-0.2-0.5-0.3-0.9-0.3c-0.3,0-0.6,0.1-0.9,0.2
		s-0.5,0.3-0.8,0.6l-0.9-0.9c0.4-0.4,0.8-0.7,1.2-0.9s0.9-0.3,1.5-0.3c0.5,0,0.9,0.1,1.3,0.2c0.4,0.2,0.6,0.4,0.8,0.7
		c0.2,0.3,0.3,0.7,0.3,1.2v4.3H115.5z"/>
	<path class="st2" d="M118.4,195.3V189h1.4l0,1.3l-0.2,0.1c0.1-0.2,0.2-0.4,0.3-0.6c0.1-0.2,0.3-0.3,0.5-0.5
		c0.2-0.1,0.4-0.2,0.6-0.3c0.2-0.1,0.5-0.1,0.7-0.1c0.3,0,0.6,0.1,0.9,0.2c0.3,0.1,0.5,0.3,0.7,0.5c0.2,0.2,0.3,0.5,0.4,0.9l-0.2,0
		l0.1-0.2c0.1-0.2,0.2-0.4,0.4-0.5s0.3-0.3,0.5-0.4s0.4-0.2,0.6-0.3s0.4-0.1,0.6-0.1c0.5,0,0.9,0.1,1.2,0.3c0.3,0.2,0.6,0.5,0.7,0.9
		c0.2,0.4,0.2,0.9,0.2,1.5v3.8h-1.5v-3.7c0-0.5-0.1-0.8-0.3-1.1c-0.2-0.2-0.5-0.3-0.9-0.3c-0.2,0-0.4,0-0.6,0.1
		c-0.2,0.1-0.3,0.2-0.5,0.3s-0.2,0.3-0.3,0.4c-0.1,0.2-0.1,0.3-0.1,0.5v3.8h-1.5v-3.7c0-0.5-0.1-0.8-0.3-1c-0.2-0.2-0.5-0.4-0.8-0.4
		c-0.2,0-0.4,0-0.6,0.1c-0.2,0.1-0.3,0.2-0.5,0.3s-0.2,0.3-0.3,0.4c-0.1,0.2-0.1,0.3-0.1,0.5v3.8H118.4z"/>
	<path class="st2" d="M129.6,197.9v-9h1.4l0,1.4l-0.3-0.1c0-0.2,0.2-0.5,0.4-0.7c0.2-0.2,0.5-0.4,0.8-0.5c0.3-0.1,0.7-0.2,1-0.2
		c0.6,0,1.1,0.1,1.5,0.4c0.4,0.3,0.8,0.7,1,1.2c0.3,0.5,0.4,1.1,0.4,1.7s-0.1,1.2-0.4,1.7c-0.2,0.5-0.6,0.9-1,1.2
		c-0.4,0.3-0.9,0.4-1.5,0.4c-0.4,0-0.7-0.1-1.1-0.2c-0.3-0.1-0.6-0.3-0.9-0.6c-0.2-0.2-0.4-0.5-0.4-0.7l0.4-0.2v4.2H129.6z
		 M132.8,194.1c0.3,0,0.6-0.1,0.9-0.3c0.3-0.2,0.5-0.4,0.6-0.7c0.2-0.3,0.2-0.6,0.2-1s-0.1-0.7-0.2-1c-0.1-0.3-0.4-0.5-0.6-0.7
		c-0.3-0.2-0.6-0.3-0.9-0.3c-0.4,0-0.7,0.1-0.9,0.3c-0.3,0.2-0.5,0.4-0.6,0.7c-0.2,0.3-0.2,0.6-0.2,1s0.1,0.7,0.2,1
		c0.2,0.3,0.4,0.5,0.6,0.7C132.1,194,132.5,194.1,132.8,194.1z"/>
	<path class="st2" d="M140.2,195.4c-0.6,0-1.2-0.1-1.7-0.4s-0.9-0.7-1.2-1.2c-0.3-0.5-0.4-1.1-0.4-1.7s0.1-1.2,0.4-1.7
		c0.3-0.5,0.7-0.9,1.2-1.2c0.5-0.3,1.1-0.4,1.7-0.4c0.6,0,1.2,0.1,1.7,0.4c0.5,0.3,0.9,0.7,1.2,1.2c0.3,0.5,0.4,1.1,0.4,1.7
		s-0.1,1.2-0.4,1.7c-0.3,0.5-0.7,0.9-1.2,1.2S140.8,195.4,140.2,195.4z M140.2,194.1c0.3,0,0.7-0.1,0.9-0.3c0.3-0.2,0.5-0.4,0.6-0.7
		c0.2-0.3,0.2-0.6,0.2-1c0-0.4-0.1-0.7-0.2-1c-0.2-0.3-0.4-0.5-0.6-0.7c-0.3-0.2-0.6-0.3-0.9-0.3s-0.7,0.1-0.9,0.3
		c-0.3,0.2-0.5,0.4-0.6,0.7c-0.2,0.3-0.2,0.6-0.2,1s0.1,0.7,0.2,1c0.2,0.3,0.4,0.5,0.6,0.7C139.5,194,139.8,194.1,140.2,194.1z"/>
	<path class="st2" d="M150.4,195.4c-0.6,0-1.1-0.1-1.5-0.3c-0.4-0.2-0.8-0.5-1.1-0.8l0.9-0.8c0.2,0.3,0.5,0.5,0.8,0.6
		s0.6,0.2,0.9,0.2c0.1,0,0.3,0,0.4,0c0.1,0,0.2-0.1,0.3-0.1s0.1-0.1,0.2-0.2c0-0.1,0.1-0.2,0.1-0.3c0-0.2-0.1-0.3-0.2-0.5
		c-0.1,0-0.2-0.1-0.4-0.2c-0.2-0.1-0.4-0.1-0.7-0.2c-0.4-0.1-0.8-0.2-1.1-0.4c-0.3-0.1-0.5-0.3-0.7-0.5c-0.1-0.2-0.2-0.3-0.3-0.5
		c-0.1-0.2-0.1-0.4-0.1-0.6c0-0.4,0.1-0.7,0.3-1s0.5-0.5,0.8-0.7c0.4-0.2,0.7-0.2,1.2-0.2c0.3,0,0.6,0,0.9,0.1
		c0.3,0.1,0.6,0.2,0.8,0.3c0.3,0.1,0.5,0.3,0.7,0.5l-0.8,0.9c-0.1-0.1-0.3-0.3-0.5-0.4c-0.2-0.1-0.4-0.2-0.5-0.3
		c-0.2-0.1-0.4-0.1-0.5-0.1c-0.2,0-0.3,0-0.4,0c-0.1,0-0.2,0.1-0.3,0.1c-0.1,0.1-0.1,0.1-0.2,0.2c0,0.1-0.1,0.2-0.1,0.3
		c0,0.1,0,0.2,0.1,0.3c0,0.1,0.1,0.2,0.2,0.2s0.2,0.1,0.4,0.2c0.2,0.1,0.4,0.1,0.7,0.2c0.4,0.1,0.7,0.2,1,0.3
		c0.3,0.1,0.5,0.3,0.6,0.4c0.2,0.1,0.3,0.3,0.3,0.5c0.1,0.2,0.1,0.4,0.1,0.6c0,0.4-0.1,0.7-0.3,1c-0.2,0.3-0.5,0.5-0.9,0.7
		S150.9,195.4,150.4,195.4z"/>
	<path class="st2" d="M157,195.4c-0.6,0-1.2-0.1-1.7-0.4s-0.9-0.7-1.2-1.2c-0.3-0.5-0.4-1.1-0.4-1.7s0.1-1.2,0.4-1.7
		c0.3-0.5,0.7-0.9,1.2-1.2c0.5-0.3,1.1-0.4,1.7-0.4c0.6,0,1.2,0.1,1.7,0.4c0.5,0.3,0.9,0.7,1.2,1.2c0.3,0.5,0.4,1.1,0.4,1.7
		s-0.1,1.2-0.4,1.7c-0.3,0.5-0.7,0.9-1.2,1.2S157.6,195.4,157,195.4z M157,194.1c0.3,0,0.7-0.1,0.9-0.3c0.3-0.2,0.5-0.4,0.6-0.7
		c0.2-0.3,0.2-0.6,0.2-1c0-0.4-0.1-0.7-0.2-1c-0.2-0.3-0.4-0.5-0.6-0.7c-0.3-0.2-0.6-0.3-0.9-0.3s-0.7,0.1-0.9,0.3
		c-0.3,0.2-0.5,0.4-0.6,0.7c-0.2,0.3-0.2,0.6-0.2,1s0.1,0.7,0.2,1c0.2,0.3,0.4,0.5,0.6,0.7C156.3,194,156.6,194.1,157,194.1z"/>
	<path class="st2" d="M161.6,195.3v-8.9h1.5v8.9H161.6z"/>
	<path class="st2" d="M165.7,187.6c-0.3,0-0.5-0.1-0.7-0.2c-0.2-0.1-0.2-0.4-0.2-0.6c0-0.3,0.1-0.5,0.3-0.6c0.2-0.2,0.4-0.2,0.7-0.2
		c0.3,0,0.5,0.1,0.7,0.2c0.2,0.1,0.2,0.4,0.2,0.6c0,0.2-0.1,0.5-0.3,0.6S166,187.6,165.7,187.6z M165,195.3V189h1.5v6.3H165z"/>
	<path class="st2" d="M170.9,195.4c-0.6,0-1.1-0.1-1.5-0.4s-0.8-0.7-1.1-1.2c-0.3-0.5-0.4-1.1-0.4-1.7c0-0.6,0.1-1.2,0.4-1.7
		c0.3-0.5,0.6-0.9,1.1-1.2c0.4-0.3,0.9-0.4,1.5-0.4c0.3,0,0.6,0,0.9,0.1c0.3,0.1,0.5,0.2,0.8,0.4c0.2,0.2,0.4,0.3,0.5,0.5
		s0.2,0.4,0.2,0.6l-0.4,0v-4.2h1.5v8.9h-1.4l0-1.5l0.3,0c0,0.2-0.1,0.4-0.2,0.6c-0.1,0.2-0.3,0.4-0.5,0.5c-0.2,0.2-0.5,0.3-0.7,0.4
		C171.4,195.4,171.1,195.4,170.9,195.4z M171.1,194.2c0.3,0,0.6-0.1,0.9-0.3s0.5-0.4,0.6-0.7c0.1-0.3,0.2-0.7,0.2-1.1
		s-0.1-0.8-0.2-1.1c-0.1-0.3-0.4-0.5-0.6-0.7c-0.3-0.2-0.6-0.3-0.9-0.3c-0.4,0-0.7,0.1-0.9,0.3c-0.3,0.2-0.5,0.4-0.6,0.7
		c-0.2,0.3-0.2,0.7-0.2,1.1s0.1,0.8,0.2,1.1c0.2,0.3,0.4,0.5,0.6,0.7S170.8,194.2,171.1,194.2z"/>
	<path class="st2" d="M178.9,195.4c-0.6,0-1.2-0.1-1.7-0.4s-0.9-0.7-1.2-1.2s-0.4-1.1-0.4-1.7s0.1-1.2,0.4-1.7
		c0.3-0.5,0.7-0.9,1.2-1.2c0.5-0.3,1.1-0.4,1.7-0.4c0.6,0,1.2,0.1,1.7,0.4c0.5,0.3,0.9,0.7,1.2,1.2c0.3,0.5,0.4,1.1,0.4,1.7
		s-0.1,1.2-0.4,1.7s-0.7,0.9-1.2,1.2S179.5,195.4,178.9,195.4z M178.9,194.1c0.3,0,0.7-0.1,0.9-0.3c0.3-0.2,0.5-0.4,0.6-0.7
		c0.2-0.3,0.2-0.6,0.2-1c0-0.4-0.1-0.7-0.2-1c-0.2-0.3-0.4-0.5-0.6-0.7c-0.3-0.2-0.6-0.3-0.9-0.3s-0.7,0.1-0.9,0.3
		c-0.3,0.2-0.5,0.4-0.6,0.7c-0.2,0.3-0.2,0.6-0.2,1s0.1,0.7,0.2,1c0.2,0.3,0.4,0.5,0.6,0.7C178.2,194,178.5,194.1,178.9,194.1z"/>
</g>
<image style="overflow:visible;enable-background:new    ;" width="249" height="187" xlink:href="fondo tips.png"  transform="matrix(0.9237 0 0 0.9218 0 0)">
</image>
<g>
	<line class="st3" x1="106.9" y1="55.1" x2="106.9" y2="72.8"/>
	<line class="st3" x1="24.4" y1="55.1" x2="24.4" y2="88.1"/>
	<circle class="st4" cx="48.2" cy="61.7" r="1.3"/>
	<circle class="st4" cx="62.5" cy="50.3" r="2.4"/>
	<circle class="st4" cx="74.1" cy="60.9" r="2.1"/>
	<circle class="st4" cx="92.3" cy="53.9" r="1.2"/>
	<path class="st5" d="M101.1,89.8c0,0-9.4-9.1,0.7-6.6c0,0-2.1-10.4,4.9-10.4c7.7,1.2-0.8,17.6,3.5,12.5s8.2-2.8,8.1,1.2
		c-0.2,4-3.8,5.7-3.8,5.7s7.3-2.3,6.3,7.1S109.9,98,109.9,98s-7.1,5.4-13.5-0.8C89.8,91,96.1,86.2,101.1,89.8z"/>
	<g>
		<path class="st5" d="M50.7,100.2c4.4,6.3-8.3,11.2-10.9,4.9c-6.7,11.9-27,2.4-31.9-3.7s3.1-6.8,3.1-6.8s0,0,4.5-5.5
			s11.4-0.4,10.1,2.6c8.1-4.5,8.2,6.3,8.2,6.3l-0.5-3.4c2.4-3.5,9.6-4.2,12.5,1.8c0.2-7.8,10-8.6,11.4-0.7
			c0.2-4.6,10.1-6.8,10.8,2.2c0.5-7.3,12.4-7,11.6,2.4c11-8,11.5,6.7,5.2,4.3c-0.3,9.1-9.2,8-11.8,1.3c0.2,2.5-5.6,9-11.4-0.7
			c-6.3,7.9-11.9,1.5-11.9,1.5s2-1.7,2-3.4C51.6,101.8,50.7,100.2,50.7,100.2z"/>
	</g>
	<path class="st3" d="M96,97.2c-2.2,0.9-4.6,1.7-8,2.5"/>
	<circle class="st4" cx="114.7" cy="69.4" r="2.4"/>
	<circle class="st4" cx="117.6" cy="74.9" r="1.3"/>
	<circle class="st4" cx="112.7" cy="75.3" r="0.9"/>
	<circle class="st4" cx="78.6" cy="87" r="2.3"/>
	<circle class="st4" cx="82.3" cy="94.1" r="1.4"/>
	<ellipse class="st3" cx="65.7" cy="55.2" rx="41.2" ry="13.4"/>
	<path class="st4" d="M196.8,65.7c1.7,1.3-4.2,1.4-6,2.9c-3.2,2.6-1,5.6-2.1,8.8c-0.6,1.7-3.4,3.1-3.6,4.9c-0.1,1.7,3.2,4.7-0.6,4.8
		c-2.8,0.1-1.9-3.9-1.2-5.6c1.1-2.5,2.7-5,1.1-7.8c-1.5-2.6-3.6-2.6-6.2-3c-3.2-0.5-3.2-2.7-4.8-5c-2.4-3.5-8.8-5.3-13-5.3
		C160.3,60.4,183.6,55.3,196.8,65.7z"/>
	<path class="st3" d="M210.9,82.1c-6.9-13.8-21.2-23.3-37.7-23.3c-18.1,0-33.5,11.4-39.5,27.4"/>
	<line class="st3" x1="146.1" y1="101" x2="176.9" y2="101"/>
	<g>
		<path class="st5" d="M208.6,105.2c5.4,2.4-1.1,10.6-5.3,7.5c0.2,6.5-13.5,3.3-15.7,0.5c-2,4.8-8.1,3.1-10.2,2.3
			c-5.6-2.1,0.8-10.7,0.8-10.7s-2-1.1-1.2-6.5s7.3-4.7,7.6-2.3c3.6-6.1,7.8,0.9,7.8,0.9l-1.7-2c0.2-3.2,4.6-6.5,8.9-3.7
			c-2.9-5.1,6.7-10.2,10.6-4.5c-2.5-5,5.4-9.4,8.5-3c4.1-9.5,12.3,5.8,7.3,6.8c3.4,6.1-1,16.1-5.3,12.8c0.3,14.3-10.5,6.4-10.5,6.4
			s0.7-1.9,0-3C209.8,105.9,208.6,105.2,208.6,105.2z"/>
	</g>
	<path class="st5" d="M130.4,99c0,0-13.4-7.9,0.8-8.2c0,0-1.3-4.6,4.3-4.6c6.2,1,8.9,4.1,8.8,7.5c-0.1,3.5-3,5-3,5s5.8-2,5,6.2
		s-8.7-1.2-8.7-1.2s-4.3,7.9-9.5,2.5C123.1,100.7,126.7,98.4,130.4,99z"/>
	<circle class="st4" cx="160.8" cy="66.4" r="2.4"/>
	<circle class="st4" cx="163.8" cy="71.9" r="1.3"/>
	<circle class="st4" cx="158.8" cy="72.3" r="0.9"/>
	<circle class="st4" cx="212.8" cy="72.3" r="2.4"/>
	<circle class="st4" cx="218.2" cy="71.9" r="1.3"/>
	<circle class="st4" cx="209" cy="67" r="0.9"/>
	<circle class="st4" cx="130.3" cy="82.3" r="2.4"/>
	<circle class="st4" cx="141.6" cy="84.7" r="1.3"/>
</g>
</svg>
