<?xml version="1.0" encoding="utf-8"?>
<!-- Generator: Adobe Illustrator 26.0.0, SVG Export Plug-In . SVG Version: 6.00 Build 0)  -->
<svg version="1.1" id="Capa_1" xmlns="http://www.w3.org/2000/svg" xmlns:xlink="http://www.w3.org/1999/xlink" x="0px" y="0px"
	 viewBox="0 0 230 210" style="enable-background:new 0 0 230 210;" xml:space="preserve">
<style type="text/css">
	.st0{fill:none;}
	.st1{enable-background:new    ;}
	.st2{fill:#43878D;}
	.st3{fill:none;stroke:#FFFFFF;stroke-width:3;stroke-miterlimit:10;}
	.st4{fill:none;stroke:#FFFFFF;stroke-width:3;stroke-miterlimit:10;stroke-dasharray:5.0338,5.0338;}
	.st5{fill:none;stroke:#FFFFFF;stroke-miterlimit:10;}
	.st6{fill:none;stroke:#FFFFFF;stroke-width:3;stroke-miterlimit:10;stroke-dasharray:5;}
</style>
<rect y="172" class="st0" width="230" height="37"/>
<g class="st1">
	<path class="st2" d="M78.9,194.9v-8.4h3.5c0.5,0,0.9,0.1,1.3,0.3c0.4,0.2,0.7,0.5,0.9,0.9c0.2,0.4,0.3,0.8,0.3,1.3
		s-0.1,0.9-0.3,1.3c-0.2,0.4-0.5,0.7-0.9,1c-0.4,0.2-0.8,0.4-1.3,0.4h-1.9v3.1H78.9z M80.4,190.4h1.8c0.2,0,0.4-0.1,0.6-0.2
		c0.2-0.1,0.3-0.3,0.4-0.5c0.1-0.2,0.2-0.4,0.2-0.6c0-0.2-0.1-0.4-0.2-0.6c-0.1-0.2-0.2-0.3-0.4-0.4c-0.2-0.1-0.4-0.2-0.6-0.2h-1.8
		V190.4z"/>
	<path class="st2" d="M88,195c-0.4,0-0.8-0.1-1.1-0.2s-0.6-0.4-0.8-0.7s-0.3-0.6-0.3-1c0-0.3,0.1-0.6,0.2-0.9
		c0.1-0.3,0.3-0.5,0.5-0.6s0.5-0.3,0.9-0.4s0.8-0.1,1.2-0.1h1.8l-0.1,1.1h-1.8c-0.2,0-0.4,0-0.6,0.1c-0.2,0-0.3,0.1-0.4,0.2
		c-0.1,0.1-0.2,0.2-0.3,0.3c-0.1,0.1-0.1,0.2-0.1,0.4c0,0.2,0,0.3,0.1,0.4c0.1,0.1,0.2,0.2,0.3,0.3c0.1,0.1,0.3,0.1,0.5,0.1
		c0.3,0,0.5,0,0.8-0.1c0.2-0.1,0.4-0.2,0.6-0.4s0.3-0.3,0.4-0.5l0.3,0.8c-0.2,0.3-0.4,0.5-0.6,0.7c-0.2,0.2-0.5,0.4-0.8,0.5
		C88.6,195,88.3,195,88,195z M89.8,194.9v-4c0-0.3-0.1-0.6-0.3-0.8c-0.2-0.2-0.5-0.3-0.9-0.3c-0.3,0-0.6,0.1-0.9,0.2
		s-0.5,0.3-0.8,0.6l-0.9-0.9c0.4-0.4,0.8-0.7,1.2-0.9s0.9-0.3,1.5-0.3c0.5,0,0.9,0.1,1.3,0.2c0.4,0.2,0.6,0.4,0.8,0.7
		c0.2,0.3,0.3,0.7,0.3,1.2v4.3H89.8z"/>
	<path class="st2" d="M92.7,194.9v-6.3h1.4l0,1.3l-0.3,0.1c0.1-0.3,0.2-0.5,0.5-0.8c0.2-0.2,0.5-0.4,0.8-0.6c0.3-0.1,0.7-0.2,1-0.2
		c0.5,0,0.9,0.1,1.2,0.3c0.3,0.2,0.6,0.5,0.7,0.9c0.2,0.4,0.2,0.9,0.2,1.4v3.9h-1.5v-3.8c0-0.3,0-0.6-0.1-0.8
		c-0.1-0.2-0.2-0.4-0.4-0.5c-0.2-0.1-0.4-0.1-0.7-0.1c-0.2,0-0.4,0-0.6,0.1c-0.2,0.1-0.3,0.2-0.5,0.3c-0.1,0.1-0.2,0.3-0.3,0.4
		s-0.1,0.3-0.1,0.5v3.8h-0.7c-0.1,0-0.3,0-0.4,0S92.8,194.9,92.7,194.9z M96.5,187.5c-0.2,0-0.3,0-0.4-0.1c-0.1-0.1-0.2-0.1-0.4-0.2
		c-0.2-0.1-0.3-0.2-0.3-0.3c-0.1-0.1-0.1-0.1-0.2-0.1c-0.1,0-0.2,0.1-0.3,0.2c-0.1,0.1-0.1,0.3-0.2,0.5l-0.9-0.1
		c0-0.4,0.1-0.8,0.4-1.1c0.2-0.3,0.6-0.5,1-0.5c0.2,0,0.3,0,0.4,0.1c0.1,0.1,0.2,0.1,0.4,0.2c0.1,0.1,0.3,0.2,0.3,0.3
		c0.1,0.1,0.2,0.1,0.2,0.1c0.1,0,0.2-0.1,0.3-0.2c0.1-0.1,0.1-0.3,0.2-0.5l0.9,0.1c0,0.3-0.1,0.5-0.2,0.8c-0.1,0.2-0.3,0.4-0.5,0.6
		C97.1,187.5,96.8,187.5,96.5,187.5z"/>
	<path class="st2" d="M101.8,195c-0.4,0-0.8-0.1-1.1-0.2s-0.6-0.4-0.8-0.7s-0.3-0.6-0.3-1c0-0.3,0.1-0.6,0.2-0.9
		c0.1-0.3,0.3-0.5,0.5-0.6s0.5-0.3,0.9-0.4s0.8-0.1,1.2-0.1h1.8l-0.1,1.1h-1.8c-0.2,0-0.4,0-0.6,0.1c-0.2,0-0.3,0.1-0.4,0.2
		c-0.1,0.1-0.2,0.2-0.3,0.3c-0.1,0.1-0.1,0.2-0.1,0.4c0,0.2,0,0.3,0.1,0.4c0.1,0.1,0.2,0.2,0.3,0.3c0.1,0.1,0.3,0.1,0.5,0.1
		c0.3,0,0.5,0,0.8-0.1c0.2-0.1,0.4-0.2,0.6-0.4s0.3-0.3,0.4-0.5l0.3,0.8c-0.2,0.3-0.4,0.5-0.6,0.7c-0.2,0.2-0.5,0.4-0.8,0.5
		C102.4,195,102.1,195,101.8,195z M103.6,194.9v-4c0-0.3-0.1-0.6-0.3-0.8c-0.2-0.2-0.5-0.3-0.9-0.3c-0.3,0-0.6,0.1-0.9,0.2
		s-0.5,0.3-0.8,0.6l-0.9-0.9c0.4-0.4,0.8-0.7,1.2-0.9s0.9-0.3,1.5-0.3c0.5,0,0.9,0.1,1.3,0.2c0.4,0.2,0.6,0.4,0.8,0.7
		c0.2,0.3,0.3,0.7,0.3,1.2v4.3H103.6z"/>
	<path class="st2" d="M106.6,194.9V186h1.5v8.9H106.6z"/>
	<path class="st2" d="M115.9,195c-0.6,0-1.1-0.1-1.5-0.4c-0.4-0.3-0.8-0.7-1.1-1.2c-0.3-0.5-0.4-1.1-0.4-1.7c0-0.6,0.1-1.2,0.4-1.7
		c0.3-0.5,0.6-0.9,1.1-1.2c0.4-0.3,0.9-0.4,1.5-0.4c0.3,0,0.6,0,0.9,0.1c0.3,0.1,0.5,0.2,0.8,0.4c0.2,0.2,0.4,0.3,0.5,0.5
		s0.2,0.4,0.2,0.6l-0.4,0V186h1.5v8.9h-1.4l0-1.5l0.3,0c0,0.2-0.1,0.4-0.2,0.6c-0.1,0.2-0.3,0.4-0.5,0.5c-0.2,0.2-0.5,0.3-0.7,0.4
		C116.4,195,116.2,195,115.9,195z M116.1,193.8c0.3,0,0.6-0.1,0.9-0.3c0.3-0.2,0.5-0.4,0.6-0.7c0.1-0.3,0.2-0.7,0.2-1.1
		s-0.1-0.8-0.2-1.1c-0.1-0.3-0.4-0.5-0.6-0.7c-0.3-0.2-0.6-0.3-0.9-0.3c-0.4,0-0.7,0.1-0.9,0.3c-0.3,0.2-0.5,0.4-0.6,0.7
		c-0.2,0.3-0.2,0.7-0.2,1.1s0.1,0.8,0.2,1.1c0.2,0.3,0.4,0.5,0.6,0.7C115.5,193.7,115.8,193.8,116.1,193.8z"/>
	<path class="st2" d="M124,195c-0.7,0-1.2-0.1-1.8-0.4c-0.5-0.3-0.9-0.7-1.2-1.1c-0.3-0.5-0.4-1-0.4-1.7c0-0.5,0.1-0.9,0.2-1.4
		s0.4-0.8,0.7-1.1c0.3-0.3,0.6-0.5,1-0.7c0.4-0.2,0.8-0.2,1.3-0.2c0.4,0,0.8,0.1,1.2,0.2c0.4,0.2,0.7,0.4,0.9,0.7
		c0.3,0.3,0.5,0.6,0.6,1s0.2,0.8,0.2,1.2l0,0.5h-5.1l-0.3-1h4.2l-0.2,0.2V191c0-0.2-0.1-0.5-0.2-0.6c-0.1-0.2-0.3-0.3-0.5-0.4
		s-0.4-0.2-0.7-0.2c-0.4,0-0.7,0.1-1,0.2c-0.3,0.1-0.5,0.4-0.6,0.7c-0.1,0.3-0.2,0.6-0.2,1.1c0,0.4,0.1,0.8,0.3,1.1
		c0.2,0.3,0.4,0.5,0.7,0.7c0.3,0.2,0.7,0.3,1.1,0.3c0.3,0,0.6,0,0.8-0.1s0.5-0.3,0.8-0.5l0.7,1c-0.2,0.2-0.5,0.4-0.7,0.5
		c-0.3,0.1-0.6,0.2-0.9,0.3S124.3,195,124,195z"/>
	<path class="st2" d="M131,190v-1.4h4.1v1.4H131z M132.2,194.9V187h1.5v7.9H132.2z"/>
	<path class="st2" d="M139.1,195c-0.7,0-1.2-0.1-1.8-0.4s-0.9-0.7-1.2-1.1c-0.3-0.5-0.4-1-0.4-1.7c0-0.5,0.1-0.9,0.2-1.4
		s0.4-0.8,0.7-1.1c0.3-0.3,0.6-0.5,1-0.7c0.4-0.2,0.8-0.2,1.3-0.2c0.4,0,0.8,0.1,1.2,0.2c0.4,0.2,0.7,0.4,0.9,0.7
		c0.3,0.3,0.5,0.6,0.6,1c0.1,0.4,0.2,0.8,0.2,1.2l0,0.5h-5.1l-0.3-1h4.2l-0.2,0.2V191c0-0.2-0.1-0.5-0.2-0.6
		c-0.1-0.2-0.3-0.3-0.5-0.4s-0.4-0.2-0.7-0.2c-0.4,0-0.7,0.1-1,0.2c-0.3,0.1-0.5,0.4-0.6,0.7s-0.2,0.6-0.2,1.1
		c0,0.4,0.1,0.8,0.3,1.1c0.2,0.3,0.4,0.5,0.7,0.7s0.7,0.3,1.1,0.3c0.3,0,0.6,0,0.8-0.1s0.5-0.3,0.8-0.5l0.7,1
		c-0.2,0.2-0.5,0.4-0.7,0.5c-0.3,0.1-0.6,0.2-0.9,0.3C139.7,195,139.4,195,139.1,195z"/>
	<path class="st2" d="M143.2,194.9V186h1.5v8.9H143.2z"/>
	<path class="st2" d="M148.1,195c-0.4,0-0.8-0.1-1.1-0.2c-0.3-0.2-0.6-0.4-0.8-0.7c-0.2-0.3-0.3-0.6-0.3-1c0-0.3,0.1-0.6,0.2-0.9
		s0.3-0.5,0.5-0.6c0.2-0.2,0.5-0.3,0.9-0.4c0.4-0.1,0.8-0.1,1.2-0.1h1.8l-0.1,1.1h-1.8c-0.2,0-0.4,0-0.6,0.1c-0.2,0-0.3,0.1-0.4,0.2
		c-0.1,0.1-0.2,0.2-0.3,0.3c-0.1,0.1-0.1,0.2-0.1,0.4c0,0.2,0,0.3,0.1,0.4s0.2,0.2,0.3,0.3c0.1,0.1,0.3,0.1,0.5,0.1
		c0.3,0,0.5,0,0.8-0.1c0.2-0.1,0.4-0.2,0.6-0.4c0.2-0.2,0.3-0.3,0.4-0.5l0.3,0.8c-0.2,0.3-0.4,0.5-0.6,0.7s-0.5,0.4-0.8,0.5
		C148.7,195,148.4,195,148.1,195z M149.9,194.9v-4c0-0.3-0.1-0.6-0.3-0.8c-0.2-0.2-0.5-0.3-0.9-0.3c-0.3,0-0.6,0.1-0.9,0.2
		c-0.3,0.1-0.5,0.3-0.8,0.6l-0.9-0.9c0.4-0.4,0.8-0.7,1.2-0.9s0.9-0.3,1.5-0.3c0.5,0,0.9,0.1,1.3,0.2c0.4,0.2,0.6,0.4,0.8,0.7
		c0.2,0.3,0.3,0.7,0.3,1.2v4.3H149.9z"/>
</g>
<image style="overflow:visible;enable-background:new    ;" width="249" height="187" xlink:href="fondo tips.png"  transform="matrix(0.9237 0 0 0.9237 0 0)">
</image>
<g>
	<polyline class="st3" points="29.8,45.2 29.8,35.4 171.5,35.4 171.5,45.2 	"/>
	<path class="st3" d="M31.6,72.4c0,0,4,73.3,69.1,74.8s70.9-74.8,70.9-74.8"/>
	<path class="st3" d="M34,87.4c0,0,20.8-5.9,38.1,9.9s11.3,47.5,11.3,47.5"/>
	<path class="st3" d="M25.3,45.2v27.2c0,0,49.8,6.8,49.8-13.6S25.3,45.2,25.3,45.2z"/>
	<path class="st3" d="M168,87.4c0,0-20.8-5.9-38.1,9.9s-11.3,47.5-11.3,47.5"/>
	<g>
		<g>
			<path class="st3" d="M34,82c0,0,0.9-0.3,2.4-0.5"/>
			<path class="st4" d="M41.5,80.9c8.3-0.5,22.2,0.7,34.4,12C90.4,106.3,90,129.8,89,140.1"/>
			<path class="st3" d="M88.7,142.6c-0.2,1.6-0.4,2.5-0.4,2.5"/>
		</g>
	</g>
	<g>
		<g>
			<path class="st3" d="M168,82c0,0-0.9-0.3-2.4-0.5"/>
			<path class="st4" d="M160.5,80.9c-8.3-0.5-22.2,0.7-34.4,12c-14.6,13.4-14.1,36.9-13.1,47.2"/>
			<path class="st3" d="M113.3,142.6c0.2,1.6,0.4,2.5,0.4,2.5"/>
		</g>
	</g>
	<line class="st3" x1="50.2" y1="45.2" x2="50.2" y2="72.4"/>
	<path class="st3" d="M169.8,45.2v27.2c0,0,49.8,6.8,49.8-13.6S169.8,45.2,169.8,45.2z"/>
	<line class="st3" x1="194.7" y1="45.2" x2="194.7" y2="72.4"/>
	<circle class="st3" cx="61.7" cy="59" r="4.9"/>
	<circle class="st3" cx="205.9" cy="59" r="4.9"/>
	<circle class="st5" cx="205.9" cy="59" r="1.9"/>
	<circle class="st3" cx="130.6" cy="59" r="4.9"/>
	<circle class="st5" cx="130.6" cy="59" r="1.9"/>
	<line class="st6" x1="29.6" y1="40.2" x2="171.3" y2="40.2"/>
</g>
</svg>
